M48
; DRILL file {KiCad 5.1.5+dfsg1-2build2} date Fri 20 Aug 2021 20:11:19
; FORMAT={3:3/ absolute / metric / suppress leading zeros}
; #@! TF.CreationDate,2021-08-20T20:11:19+12:00
; #@! TF.GenerationSoftware,Kicad,Pcbnew,5.1.5+dfsg1-2build2
FMAT,2
METRIC,TZ
T1C0.800
T2C0.900
T3C1.000
T4C1.100
T5C1.200
T6C1.320
%
G90
G05
T1
X136200Y-72000
X141200Y-72000
X143600Y-75300
X148600Y-75300
X143600Y-72000
X148600Y-72000
X136200Y-75300
X141200Y-75300
T2
X166760Y-87100
X169300Y-87100
X166860Y-62100
X169400Y-62100
T3
X125300Y-78300
X125300Y-83300
X157000Y-64100
X157000Y-69100
X125300Y-67300
X125300Y-72300
X156600Y-79600
X156600Y-84600
T4
X105500Y-70500
X115660Y-70500
X139300Y-84900
X141840Y-84900
X144380Y-84900
X105540Y-77500
X115700Y-77500
X105540Y-74000
X115700Y-74000
X105540Y-81000
X115700Y-81000
X139160Y-65800
X141700Y-65800
X144240Y-65800
T5
X173900Y-76200
X173900Y-88900
X173900Y-60300
X173900Y-73000
T6
X95000Y-71100
X95000Y-76100
X95000Y-81100
X183000Y-69800
X183000Y-74800
X183000Y-79800
T0
M30
