G04 #@! TF.GenerationSoftware,KiCad,Pcbnew,5.1.5+dfsg1-2build2*
G04 #@! TF.CreationDate,2021-08-20T20:11:23+12:00*
G04 #@! TF.ProjectId,15vDualRailAC-DC,31357644-7561-46c5-9261-696c41432d44,rev?*
G04 #@! TF.SameCoordinates,Original*
G04 #@! TF.FileFunction,Legend,Top*
G04 #@! TF.FilePolarity,Positive*
%FSLAX46Y46*%
G04 Gerber Fmt 4.6, Leading zero omitted, Abs format (unit mm)*
G04 Created by KiCad (PCBNEW 5.1.5+dfsg1-2build2) date 2021-08-20 20:11:23*
%MOMM*%
%LPD*%
G04 APERTURE LIST*
%ADD10C,0.150000*%
%ADD11C,0.120000*%
G04 APERTURE END LIST*
D10*
X199317619Y-70759523D02*
X199317619Y-71378571D01*
X198936666Y-71045238D01*
X198936666Y-71188095D01*
X198889047Y-71283333D01*
X198841428Y-71330952D01*
X198746190Y-71378571D01*
X198508095Y-71378571D01*
X198412857Y-71330952D01*
X198365238Y-71283333D01*
X198317619Y-71188095D01*
X198317619Y-70902380D01*
X198365238Y-70807142D01*
X198412857Y-70759523D01*
X199317619Y-71711904D02*
X199317619Y-72330952D01*
X198936666Y-71997619D01*
X198936666Y-72140476D01*
X198889047Y-72235714D01*
X198841428Y-72283333D01*
X198746190Y-72330952D01*
X198508095Y-72330952D01*
X198412857Y-72283333D01*
X198365238Y-72235714D01*
X198317619Y-72140476D01*
X198317619Y-71854761D01*
X198365238Y-71759523D01*
X198412857Y-71711904D01*
X198412857Y-72759523D02*
X198365238Y-72807142D01*
X198317619Y-72759523D01*
X198365238Y-72711904D01*
X198412857Y-72759523D01*
X198317619Y-72759523D01*
X198317619Y-73759523D02*
X198317619Y-73188095D01*
X198317619Y-73473809D02*
X199317619Y-73473809D01*
X199174761Y-73378571D01*
X199079523Y-73283333D01*
X199031904Y-73188095D01*
X199317619Y-74378571D02*
X199317619Y-74473809D01*
X199270000Y-74569047D01*
X199222380Y-74616666D01*
X199127142Y-74664285D01*
X198936666Y-74711904D01*
X198698571Y-74711904D01*
X198508095Y-74664285D01*
X198412857Y-74616666D01*
X198365238Y-74569047D01*
X198317619Y-74473809D01*
X198317619Y-74378571D01*
X198365238Y-74283333D01*
X198412857Y-74235714D01*
X198508095Y-74188095D01*
X198698571Y-74140476D01*
X198936666Y-74140476D01*
X199127142Y-74188095D01*
X199222380Y-74235714D01*
X199270000Y-74283333D01*
X199317619Y-74378571D01*
X199317619Y-75330952D02*
X199317619Y-75426190D01*
X199270000Y-75521428D01*
X199222380Y-75569047D01*
X199127142Y-75616666D01*
X198936666Y-75664285D01*
X198698571Y-75664285D01*
X198508095Y-75616666D01*
X198412857Y-75569047D01*
X198365238Y-75521428D01*
X198317619Y-75426190D01*
X198317619Y-75330952D01*
X198365238Y-75235714D01*
X198412857Y-75188095D01*
X198508095Y-75140476D01*
X198698571Y-75092857D01*
X198936666Y-75092857D01*
X199127142Y-75140476D01*
X199222380Y-75188095D01*
X199270000Y-75235714D01*
X199317619Y-75330952D01*
X198317619Y-76854761D02*
X198984285Y-76854761D01*
X198889047Y-76854761D02*
X198936666Y-76902380D01*
X198984285Y-76997619D01*
X198984285Y-77140476D01*
X198936666Y-77235714D01*
X198841428Y-77283333D01*
X198317619Y-77283333D01*
X198841428Y-77283333D02*
X198936666Y-77330952D01*
X198984285Y-77426190D01*
X198984285Y-77569047D01*
X198936666Y-77664285D01*
X198841428Y-77711904D01*
X198317619Y-77711904D01*
X198317619Y-78188095D02*
X198984285Y-78188095D01*
X198889047Y-78188095D02*
X198936666Y-78235714D01*
X198984285Y-78330952D01*
X198984285Y-78473809D01*
X198936666Y-78569047D01*
X198841428Y-78616666D01*
X198317619Y-78616666D01*
X198841428Y-78616666D02*
X198936666Y-78664285D01*
X198984285Y-78759523D01*
X198984285Y-78902380D01*
X198936666Y-78997619D01*
X198841428Y-79045238D01*
X198317619Y-79045238D01*
D11*
X197500000Y-58400000D02*
X197500000Y-91500000D01*
X190000000Y-58400000D02*
X198086421Y-58400000D01*
X190000000Y-91500000D02*
X198086421Y-91500000D01*
X197500000Y-91500000D02*
X196913579Y-90373496D01*
X197500000Y-91500000D02*
X198086421Y-90373496D01*
X197500000Y-58400000D02*
X196913579Y-59526504D01*
X197500000Y-58400000D02*
X198086421Y-59526504D01*
D10*
X134793554Y-53989234D02*
X134222126Y-53990351D01*
X134507840Y-53989792D02*
X134505885Y-52989794D01*
X134410926Y-53132837D01*
X134315874Y-53228261D01*
X134220730Y-53276067D01*
X135410645Y-52988025D02*
X135505883Y-52987839D01*
X135601214Y-53035272D01*
X135648926Y-53082798D01*
X135696731Y-53177943D01*
X135744722Y-53368325D01*
X135745188Y-53606420D01*
X135697941Y-53796989D01*
X135650509Y-53892320D01*
X135602983Y-53940032D01*
X135507838Y-53987837D01*
X135412600Y-53988024D01*
X135317269Y-53940591D01*
X135269557Y-53893065D01*
X135221752Y-53797920D01*
X135173760Y-53607537D01*
X135173295Y-53369443D01*
X135220542Y-53178874D01*
X135267974Y-53083543D01*
X135315500Y-53035831D01*
X135410645Y-52988025D01*
X136125116Y-53081867D02*
X136172641Y-53034155D01*
X136267786Y-52986350D01*
X136505881Y-52985884D01*
X136601212Y-53033317D01*
X136648924Y-53080843D01*
X136696729Y-53175988D01*
X136696915Y-53271226D01*
X136649576Y-53414176D01*
X136079265Y-53986720D01*
X136698312Y-53985510D01*
X137126696Y-53889434D02*
X137174408Y-53936960D01*
X137126882Y-53984672D01*
X137079170Y-53937146D01*
X137126696Y-53889434D01*
X137126882Y-53984672D01*
X137505879Y-52983929D02*
X138124926Y-52982719D01*
X137792338Y-53364322D01*
X137935194Y-53364043D01*
X138030525Y-53411476D01*
X138078238Y-53459002D01*
X138126043Y-53554146D01*
X138126508Y-53792241D01*
X138079075Y-53887572D01*
X138031550Y-53935284D01*
X137936405Y-53983089D01*
X137650691Y-53983648D01*
X137555360Y-53936215D01*
X137507648Y-53888689D01*
X138743972Y-52981509D02*
X138839210Y-52981322D01*
X138934541Y-53028755D01*
X138982253Y-53076281D01*
X139030058Y-53171426D01*
X139078049Y-53361809D01*
X139078515Y-53599903D01*
X139031268Y-53790472D01*
X138983836Y-53885803D01*
X138936310Y-53933515D01*
X138841165Y-53981321D01*
X138745927Y-53981507D01*
X138650596Y-53934074D01*
X138602884Y-53886548D01*
X138555079Y-53791403D01*
X138507087Y-53601021D01*
X138506622Y-53362926D01*
X138553869Y-53172357D01*
X138601301Y-53077026D01*
X138648827Y-53029314D01*
X138743972Y-52981509D01*
X139696351Y-52979647D02*
X139791589Y-52979461D01*
X139886920Y-53026893D01*
X139934632Y-53074419D01*
X139982437Y-53169564D01*
X140030429Y-53359947D01*
X140030894Y-53598042D01*
X139983647Y-53788610D01*
X139936215Y-53883941D01*
X139888689Y-53931654D01*
X139793544Y-53979459D01*
X139698306Y-53979645D01*
X139602975Y-53932212D01*
X139555263Y-53884686D01*
X139507458Y-53789541D01*
X139459467Y-53599159D01*
X139459001Y-53361064D01*
X139506248Y-53170495D01*
X139553680Y-53075164D01*
X139601206Y-53027452D01*
X139696351Y-52979647D01*
X141222113Y-53976666D02*
X141220809Y-53310000D01*
X141220996Y-53405238D02*
X141268521Y-53357526D01*
X141363666Y-53309721D01*
X141506523Y-53309442D01*
X141601854Y-53356875D01*
X141649659Y-53452019D01*
X141650683Y-53975828D01*
X141649659Y-53452019D02*
X141697092Y-53356688D01*
X141792237Y-53308883D01*
X141935094Y-53308604D01*
X142030425Y-53356037D01*
X142078230Y-53451181D01*
X142079254Y-53974990D01*
X142555444Y-53974059D02*
X142554140Y-53307394D01*
X142554326Y-53402632D02*
X142601852Y-53354920D01*
X142696997Y-53307114D01*
X142839854Y-53306835D01*
X142935185Y-53354268D01*
X142982990Y-53449413D01*
X142984014Y-53973221D01*
X142982990Y-53449413D02*
X143030423Y-53354082D01*
X143125568Y-53306276D01*
X143268425Y-53305997D01*
X143363756Y-53353430D01*
X143411561Y-53448575D01*
X143412585Y-53972383D01*
D11*
X189992764Y-54698939D02*
X87692764Y-54898939D01*
X190000000Y-58400000D02*
X189991618Y-54112519D01*
X87700000Y-58600000D02*
X87691618Y-54312519D01*
X87692764Y-54898939D02*
X88818119Y-54310317D01*
X87692764Y-54898939D02*
X88820412Y-55483156D01*
X189992764Y-54698939D02*
X188865116Y-54114722D01*
X189992764Y-54698939D02*
X188867409Y-55287561D01*
X128675000Y-64820354D02*
X127675000Y-64820354D01*
X128175000Y-64320354D02*
X128175000Y-65320354D01*
X125899000Y-74881000D02*
X124701000Y-74881000D01*
X126162000Y-74841000D02*
X124438000Y-74841000D01*
X126362000Y-74801000D02*
X124238000Y-74801000D01*
X126530000Y-74761000D02*
X124070000Y-74761000D01*
X126678000Y-74721000D02*
X123922000Y-74721000D01*
X126810000Y-74681000D02*
X123790000Y-74681000D01*
X126930000Y-74641000D02*
X123670000Y-74641000D01*
X127042000Y-74601000D02*
X123558000Y-74601000D01*
X127146000Y-74561000D02*
X123454000Y-74561000D01*
X127244000Y-74521000D02*
X123356000Y-74521000D01*
X127337000Y-74481000D02*
X123263000Y-74481000D01*
X127425000Y-74441000D02*
X123175000Y-74441000D01*
X127509000Y-74401000D02*
X123091000Y-74401000D01*
X127589000Y-74361000D02*
X123011000Y-74361000D01*
X127665000Y-74321000D02*
X122935000Y-74321000D01*
X127739000Y-74281000D02*
X122861000Y-74281000D01*
X127810000Y-74241000D02*
X122790000Y-74241000D01*
X127879000Y-74201000D02*
X122721000Y-74201000D01*
X127945000Y-74161000D02*
X122655000Y-74161000D01*
X128009000Y-74121000D02*
X122591000Y-74121000D01*
X128070000Y-74081000D02*
X122530000Y-74081000D01*
X128130000Y-74041000D02*
X122470000Y-74041000D01*
X128189000Y-74001000D02*
X122411000Y-74001000D01*
X128245000Y-73961000D02*
X122355000Y-73961000D01*
X128300000Y-73921000D02*
X122300000Y-73921000D01*
X128354000Y-73881000D02*
X122246000Y-73881000D01*
X128406000Y-73841000D02*
X122194000Y-73841000D01*
X128456000Y-73801000D02*
X122144000Y-73801000D01*
X128506000Y-73761000D02*
X122094000Y-73761000D01*
X128554000Y-73721000D02*
X122046000Y-73721000D01*
X128601000Y-73681000D02*
X121999000Y-73681000D01*
X128647000Y-73641000D02*
X121953000Y-73641000D01*
X128692000Y-73601000D02*
X121908000Y-73601000D01*
X128736000Y-73561000D02*
X121864000Y-73561000D01*
X124059000Y-73521000D02*
X121822000Y-73521000D01*
X128778000Y-73521000D02*
X126541000Y-73521000D01*
X124059000Y-73481000D02*
X121780000Y-73481000D01*
X128820000Y-73481000D02*
X126541000Y-73481000D01*
X124059000Y-73441000D02*
X121739000Y-73441000D01*
X128861000Y-73441000D02*
X126541000Y-73441000D01*
X124059000Y-73401000D02*
X121699000Y-73401000D01*
X128901000Y-73401000D02*
X126541000Y-73401000D01*
X124059000Y-73361000D02*
X121660000Y-73361000D01*
X128940000Y-73361000D02*
X126541000Y-73361000D01*
X124059000Y-73321000D02*
X121621000Y-73321000D01*
X128979000Y-73321000D02*
X126541000Y-73321000D01*
X124059000Y-73281000D02*
X121584000Y-73281000D01*
X129016000Y-73281000D02*
X126541000Y-73281000D01*
X124059000Y-73241000D02*
X121547000Y-73241000D01*
X129053000Y-73241000D02*
X126541000Y-73241000D01*
X124059000Y-73201000D02*
X121511000Y-73201000D01*
X129089000Y-73201000D02*
X126541000Y-73201000D01*
X124059000Y-73161000D02*
X121476000Y-73161000D01*
X129124000Y-73161000D02*
X126541000Y-73161000D01*
X124059000Y-73121000D02*
X121442000Y-73121000D01*
X129158000Y-73121000D02*
X126541000Y-73121000D01*
X124059000Y-73081000D02*
X121408000Y-73081000D01*
X129192000Y-73081000D02*
X126541000Y-73081000D01*
X124059000Y-73041000D02*
X121375000Y-73041000D01*
X129225000Y-73041000D02*
X126541000Y-73041000D01*
X124059000Y-73001000D02*
X121343000Y-73001000D01*
X129257000Y-73001000D02*
X126541000Y-73001000D01*
X124059000Y-72961000D02*
X121311000Y-72961000D01*
X129289000Y-72961000D02*
X126541000Y-72961000D01*
X124059000Y-72921000D02*
X121280000Y-72921000D01*
X129320000Y-72921000D02*
X126541000Y-72921000D01*
X124059000Y-72881000D02*
X121250000Y-72881000D01*
X129350000Y-72881000D02*
X126541000Y-72881000D01*
X124059000Y-72841000D02*
X121220000Y-72841000D01*
X129380000Y-72841000D02*
X126541000Y-72841000D01*
X124059000Y-72801000D02*
X121190000Y-72801000D01*
X129410000Y-72801000D02*
X126541000Y-72801000D01*
X124059000Y-72761000D02*
X121162000Y-72761000D01*
X129438000Y-72761000D02*
X126541000Y-72761000D01*
X124059000Y-72721000D02*
X121134000Y-72721000D01*
X129466000Y-72721000D02*
X126541000Y-72721000D01*
X124059000Y-72681000D02*
X121106000Y-72681000D01*
X129494000Y-72681000D02*
X126541000Y-72681000D01*
X124059000Y-72641000D02*
X121079000Y-72641000D01*
X129521000Y-72641000D02*
X126541000Y-72641000D01*
X124059000Y-72601000D02*
X121053000Y-72601000D01*
X129547000Y-72601000D02*
X126541000Y-72601000D01*
X124059000Y-72561000D02*
X121027000Y-72561000D01*
X129573000Y-72561000D02*
X126541000Y-72561000D01*
X124059000Y-72521000D02*
X121002000Y-72521000D01*
X129598000Y-72521000D02*
X126541000Y-72521000D01*
X124059000Y-72481000D02*
X120977000Y-72481000D01*
X129623000Y-72481000D02*
X126541000Y-72481000D01*
X124059000Y-72441000D02*
X120953000Y-72441000D01*
X129647000Y-72441000D02*
X126541000Y-72441000D01*
X124059000Y-72401000D02*
X120929000Y-72401000D01*
X129671000Y-72401000D02*
X126541000Y-72401000D01*
X124059000Y-72361000D02*
X120905000Y-72361000D01*
X129695000Y-72361000D02*
X126541000Y-72361000D01*
X124059000Y-72321000D02*
X120883000Y-72321000D01*
X129717000Y-72321000D02*
X126541000Y-72321000D01*
X124059000Y-72281000D02*
X120860000Y-72281000D01*
X129740000Y-72281000D02*
X126541000Y-72281000D01*
X124059000Y-72241000D02*
X120838000Y-72241000D01*
X129762000Y-72241000D02*
X126541000Y-72241000D01*
X124059000Y-72201000D02*
X120817000Y-72201000D01*
X129783000Y-72201000D02*
X126541000Y-72201000D01*
X124059000Y-72161000D02*
X120796000Y-72161000D01*
X129804000Y-72161000D02*
X126541000Y-72161000D01*
X124059000Y-72121000D02*
X120775000Y-72121000D01*
X129825000Y-72121000D02*
X126541000Y-72121000D01*
X124059000Y-72081000D02*
X120755000Y-72081000D01*
X129845000Y-72081000D02*
X126541000Y-72081000D01*
X124059000Y-72041000D02*
X120736000Y-72041000D01*
X129864000Y-72041000D02*
X126541000Y-72041000D01*
X124059000Y-72001000D02*
X120716000Y-72001000D01*
X129884000Y-72001000D02*
X126541000Y-72001000D01*
X124059000Y-71961000D02*
X120697000Y-71961000D01*
X129903000Y-71961000D02*
X126541000Y-71961000D01*
X124059000Y-71921000D02*
X120679000Y-71921000D01*
X129921000Y-71921000D02*
X126541000Y-71921000D01*
X124059000Y-71881000D02*
X120661000Y-71881000D01*
X129939000Y-71881000D02*
X126541000Y-71881000D01*
X124059000Y-71841000D02*
X120643000Y-71841000D01*
X129957000Y-71841000D02*
X126541000Y-71841000D01*
X124059000Y-71801000D02*
X120626000Y-71801000D01*
X129974000Y-71801000D02*
X126541000Y-71801000D01*
X124059000Y-71761000D02*
X120610000Y-71761000D01*
X129990000Y-71761000D02*
X126541000Y-71761000D01*
X124059000Y-71721000D02*
X120593000Y-71721000D01*
X130007000Y-71721000D02*
X126541000Y-71721000D01*
X124059000Y-71681000D02*
X120577000Y-71681000D01*
X130023000Y-71681000D02*
X126541000Y-71681000D01*
X124059000Y-71641000D02*
X120562000Y-71641000D01*
X130038000Y-71641000D02*
X126541000Y-71641000D01*
X124059000Y-71601000D02*
X120546000Y-71601000D01*
X130054000Y-71601000D02*
X126541000Y-71601000D01*
X124059000Y-71561000D02*
X120532000Y-71561000D01*
X130068000Y-71561000D02*
X126541000Y-71561000D01*
X124059000Y-71521000D02*
X120517000Y-71521000D01*
X130083000Y-71521000D02*
X126541000Y-71521000D01*
X124059000Y-71481000D02*
X120503000Y-71481000D01*
X130097000Y-71481000D02*
X126541000Y-71481000D01*
X124059000Y-71441000D02*
X120489000Y-71441000D01*
X130111000Y-71441000D02*
X126541000Y-71441000D01*
X124059000Y-71401000D02*
X120476000Y-71401000D01*
X130124000Y-71401000D02*
X126541000Y-71401000D01*
X124059000Y-71361000D02*
X120463000Y-71361000D01*
X130137000Y-71361000D02*
X126541000Y-71361000D01*
X124059000Y-71321000D02*
X120450000Y-71321000D01*
X130150000Y-71321000D02*
X126541000Y-71321000D01*
X124059000Y-71281000D02*
X120438000Y-71281000D01*
X130162000Y-71281000D02*
X126541000Y-71281000D01*
X124059000Y-71241000D02*
X120426000Y-71241000D01*
X130174000Y-71241000D02*
X126541000Y-71241000D01*
X124059000Y-71201000D02*
X120415000Y-71201000D01*
X130185000Y-71201000D02*
X126541000Y-71201000D01*
X124059000Y-71161000D02*
X120403000Y-71161000D01*
X130197000Y-71161000D02*
X126541000Y-71161000D01*
X124059000Y-71121000D02*
X120393000Y-71121000D01*
X130207000Y-71121000D02*
X126541000Y-71121000D01*
X124059000Y-71081000D02*
X120382000Y-71081000D01*
X130218000Y-71081000D02*
X126541000Y-71081000D01*
X130228000Y-71041000D02*
X120372000Y-71041000D01*
X130238000Y-71001000D02*
X120362000Y-71001000D01*
X130247000Y-70961000D02*
X120353000Y-70961000D01*
X130256000Y-70921000D02*
X120344000Y-70921000D01*
X130265000Y-70881000D02*
X120335000Y-70881000D01*
X130274000Y-70841000D02*
X120326000Y-70841000D01*
X130282000Y-70801000D02*
X120318000Y-70801000D01*
X130290000Y-70761000D02*
X120310000Y-70761000D01*
X130297000Y-70721000D02*
X120303000Y-70721000D01*
X130304000Y-70681000D02*
X120296000Y-70681000D01*
X130311000Y-70641000D02*
X120289000Y-70641000D01*
X130318000Y-70601000D02*
X120282000Y-70601000D01*
X130324000Y-70561000D02*
X120276000Y-70561000D01*
X130330000Y-70521000D02*
X120270000Y-70521000D01*
X130335000Y-70480000D02*
X120265000Y-70480000D01*
X130340000Y-70440000D02*
X120260000Y-70440000D01*
X130345000Y-70400000D02*
X120255000Y-70400000D01*
X130350000Y-70360000D02*
X120250000Y-70360000D01*
X130354000Y-70320000D02*
X120246000Y-70320000D01*
X130358000Y-70280000D02*
X120242000Y-70280000D01*
X130362000Y-70240000D02*
X120238000Y-70240000D01*
X130365000Y-70200000D02*
X120235000Y-70200000D01*
X130368000Y-70160000D02*
X120232000Y-70160000D01*
X130370000Y-70120000D02*
X120230000Y-70120000D01*
X130373000Y-70080000D02*
X120227000Y-70080000D01*
X130375000Y-70040000D02*
X120225000Y-70040000D01*
X130377000Y-70000000D02*
X120223000Y-70000000D01*
X130378000Y-69960000D02*
X120222000Y-69960000D01*
X130379000Y-69920000D02*
X120221000Y-69920000D01*
X130380000Y-69880000D02*
X120220000Y-69880000D01*
X130380000Y-69840000D02*
X120220000Y-69840000D01*
X130380000Y-69800000D02*
X120220000Y-69800000D01*
X130420000Y-69800000D02*
G75*
G03X130420000Y-69800000I-5120000J0D01*
G01*
X143691000Y-81630000D02*
X143691000Y-83140000D01*
X139990000Y-81630000D02*
X139990000Y-83140000D01*
X136720000Y-83140000D02*
X146960000Y-83140000D01*
X146960000Y-81630000D02*
X146960000Y-86271000D01*
X136720000Y-81630000D02*
X136720000Y-86271000D01*
X136720000Y-86271000D02*
X146960000Y-86271000D01*
X136720000Y-81630000D02*
X146960000Y-81630000D01*
X143551000Y-62530000D02*
X143551000Y-64040000D01*
X139850000Y-62530000D02*
X139850000Y-64040000D01*
X136580000Y-64040000D02*
X146820000Y-64040000D01*
X146820000Y-62530000D02*
X146820000Y-67171000D01*
X136580000Y-62530000D02*
X136580000Y-67171000D01*
X136580000Y-67171000D02*
X146820000Y-67171000D01*
X136580000Y-62530000D02*
X146820000Y-62530000D01*
X175820000Y-77480000D02*
X175340000Y-77480000D01*
X175820000Y-87620000D02*
X175820000Y-77480000D01*
X175340000Y-87620000D02*
X175820000Y-87620000D01*
X171980000Y-77480000D02*
X172460000Y-77480000D01*
X171980000Y-87620000D02*
X171980000Y-77480000D01*
X172460000Y-87620000D02*
X171980000Y-87620000D01*
X171980000Y-71720000D02*
X172460000Y-71720000D01*
X171980000Y-61580000D02*
X171980000Y-71720000D01*
X172460000Y-61580000D02*
X171980000Y-61580000D01*
X175820000Y-71720000D02*
X175340000Y-71720000D01*
X175820000Y-61580000D02*
X175820000Y-71720000D01*
X175340000Y-61580000D02*
X175820000Y-61580000D01*
X189300000Y-83050000D02*
X189300000Y-67150000D01*
X184250000Y-83050000D02*
X189300000Y-83050000D01*
X184500000Y-82550000D02*
X184250000Y-83050000D01*
X179100000Y-82550000D02*
X184500000Y-82550000D01*
X179350000Y-83050000D02*
X179100000Y-82550000D01*
X177350000Y-83050000D02*
X179350000Y-83050000D01*
X177650000Y-82550000D02*
X177350000Y-83050000D01*
X176700000Y-82550000D02*
X177650000Y-82550000D01*
X176700000Y-67150000D02*
X176700000Y-82550000D01*
X189300000Y-67150000D02*
X176700000Y-67150000D01*
X88700000Y-67850000D02*
X88700000Y-83750000D01*
X93750000Y-67850000D02*
X88700000Y-67850000D01*
X93500000Y-68350000D02*
X93750000Y-67850000D01*
X98900000Y-68350000D02*
X93500000Y-68350000D01*
X98650000Y-67850000D02*
X98900000Y-68350000D01*
X100650000Y-67850000D02*
X98650000Y-67850000D01*
X100350000Y-68350000D02*
X100650000Y-67850000D01*
X101300000Y-68350000D02*
X100350000Y-68350000D01*
X101300000Y-83750000D02*
X101300000Y-68350000D01*
X88700000Y-83750000D02*
X101300000Y-83750000D01*
X170590000Y-88645000D02*
X170590000Y-85555000D01*
X170530000Y-87100000D02*
G75*
G03X170530000Y-87100000I-2500000J0D01*
G01*
X165040000Y-87100462D02*
G75*
G02X170590000Y-85555170I2990000J462D01*
G01*
X165040000Y-87099538D02*
G75*
G03X170590000Y-88644830I2990000J-462D01*
G01*
X170690000Y-63645000D02*
X170690000Y-60555000D01*
X170630000Y-62100000D02*
G75*
G03X170630000Y-62100000I-2500000J0D01*
G01*
X165140000Y-62100462D02*
G75*
G02X170690000Y-60555170I2990000J462D01*
G01*
X165140000Y-62099538D02*
G75*
G03X170690000Y-63644830I2990000J-462D01*
G01*
X112560000Y-75470000D02*
X112560000Y-72530000D01*
X112320000Y-75470000D02*
X112320000Y-72530000D01*
X112440000Y-75470000D02*
X112440000Y-72530000D01*
X106880000Y-74000000D02*
X107900000Y-74000000D01*
X114360000Y-74000000D02*
X113340000Y-74000000D01*
X107900000Y-75470000D02*
X113340000Y-75470000D01*
X107900000Y-72530000D02*
X107900000Y-75470000D01*
X113340000Y-72530000D02*
X107900000Y-72530000D01*
X113340000Y-75470000D02*
X113340000Y-72530000D01*
X112560000Y-78970000D02*
X112560000Y-76030000D01*
X112320000Y-78970000D02*
X112320000Y-76030000D01*
X112440000Y-78970000D02*
X112440000Y-76030000D01*
X106880000Y-77500000D02*
X107900000Y-77500000D01*
X114360000Y-77500000D02*
X113340000Y-77500000D01*
X107900000Y-78970000D02*
X113340000Y-78970000D01*
X107900000Y-76030000D02*
X107900000Y-78970000D01*
X113340000Y-76030000D02*
X107900000Y-76030000D01*
X113340000Y-78970000D02*
X113340000Y-76030000D01*
X108640000Y-69030000D02*
X108640000Y-71970000D01*
X108880000Y-69030000D02*
X108880000Y-71970000D01*
X108760000Y-69030000D02*
X108760000Y-71970000D01*
X114320000Y-70500000D02*
X113300000Y-70500000D01*
X106840000Y-70500000D02*
X107860000Y-70500000D01*
X113300000Y-69030000D02*
X107860000Y-69030000D01*
X113300000Y-71970000D02*
X113300000Y-69030000D01*
X107860000Y-71970000D02*
X113300000Y-71970000D01*
X107860000Y-69030000D02*
X107860000Y-71970000D01*
X108680000Y-79530000D02*
X108680000Y-82470000D01*
X108920000Y-79530000D02*
X108920000Y-82470000D01*
X108800000Y-79530000D02*
X108800000Y-82470000D01*
X114360000Y-81000000D02*
X113340000Y-81000000D01*
X106880000Y-81000000D02*
X107900000Y-81000000D01*
X113340000Y-79530000D02*
X107900000Y-79530000D01*
X113340000Y-82470000D02*
X113340000Y-79530000D01*
X107900000Y-82470000D02*
X113340000Y-82470000D01*
X107900000Y-79530000D02*
X107900000Y-82470000D01*
X149220000Y-76225000D02*
X149220000Y-76670000D01*
X149220000Y-73930000D02*
X149220000Y-74375000D01*
X142980000Y-76225000D02*
X142980000Y-76670000D01*
X142980000Y-73930000D02*
X142980000Y-74375000D01*
X142980000Y-76670000D02*
X149220000Y-76670000D01*
X142980000Y-73930000D02*
X149220000Y-73930000D01*
X149220000Y-72925000D02*
X149220000Y-73370000D01*
X149220000Y-70630000D02*
X149220000Y-71075000D01*
X142980000Y-72925000D02*
X142980000Y-73370000D01*
X142980000Y-70630000D02*
X142980000Y-71075000D01*
X142980000Y-73370000D02*
X149220000Y-73370000D01*
X142980000Y-70630000D02*
X149220000Y-70630000D01*
X159975000Y-77120354D02*
X158975000Y-77120354D01*
X159475000Y-76620354D02*
X159475000Y-77620354D01*
X157199000Y-87181000D02*
X156001000Y-87181000D01*
X157462000Y-87141000D02*
X155738000Y-87141000D01*
X157662000Y-87101000D02*
X155538000Y-87101000D01*
X157830000Y-87061000D02*
X155370000Y-87061000D01*
X157978000Y-87021000D02*
X155222000Y-87021000D01*
X158110000Y-86981000D02*
X155090000Y-86981000D01*
X158230000Y-86941000D02*
X154970000Y-86941000D01*
X158342000Y-86901000D02*
X154858000Y-86901000D01*
X158446000Y-86861000D02*
X154754000Y-86861000D01*
X158544000Y-86821000D02*
X154656000Y-86821000D01*
X158637000Y-86781000D02*
X154563000Y-86781000D01*
X158725000Y-86741000D02*
X154475000Y-86741000D01*
X158809000Y-86701000D02*
X154391000Y-86701000D01*
X158889000Y-86661000D02*
X154311000Y-86661000D01*
X158965000Y-86621000D02*
X154235000Y-86621000D01*
X159039000Y-86581000D02*
X154161000Y-86581000D01*
X159110000Y-86541000D02*
X154090000Y-86541000D01*
X159179000Y-86501000D02*
X154021000Y-86501000D01*
X159245000Y-86461000D02*
X153955000Y-86461000D01*
X159309000Y-86421000D02*
X153891000Y-86421000D01*
X159370000Y-86381000D02*
X153830000Y-86381000D01*
X159430000Y-86341000D02*
X153770000Y-86341000D01*
X159489000Y-86301000D02*
X153711000Y-86301000D01*
X159545000Y-86261000D02*
X153655000Y-86261000D01*
X159600000Y-86221000D02*
X153600000Y-86221000D01*
X159654000Y-86181000D02*
X153546000Y-86181000D01*
X159706000Y-86141000D02*
X153494000Y-86141000D01*
X159756000Y-86101000D02*
X153444000Y-86101000D01*
X159806000Y-86061000D02*
X153394000Y-86061000D01*
X159854000Y-86021000D02*
X153346000Y-86021000D01*
X159901000Y-85981000D02*
X153299000Y-85981000D01*
X159947000Y-85941000D02*
X153253000Y-85941000D01*
X159992000Y-85901000D02*
X153208000Y-85901000D01*
X160036000Y-85861000D02*
X153164000Y-85861000D01*
X155359000Y-85821000D02*
X153122000Y-85821000D01*
X160078000Y-85821000D02*
X157841000Y-85821000D01*
X155359000Y-85781000D02*
X153080000Y-85781000D01*
X160120000Y-85781000D02*
X157841000Y-85781000D01*
X155359000Y-85741000D02*
X153039000Y-85741000D01*
X160161000Y-85741000D02*
X157841000Y-85741000D01*
X155359000Y-85701000D02*
X152999000Y-85701000D01*
X160201000Y-85701000D02*
X157841000Y-85701000D01*
X155359000Y-85661000D02*
X152960000Y-85661000D01*
X160240000Y-85661000D02*
X157841000Y-85661000D01*
X155359000Y-85621000D02*
X152921000Y-85621000D01*
X160279000Y-85621000D02*
X157841000Y-85621000D01*
X155359000Y-85581000D02*
X152884000Y-85581000D01*
X160316000Y-85581000D02*
X157841000Y-85581000D01*
X155359000Y-85541000D02*
X152847000Y-85541000D01*
X160353000Y-85541000D02*
X157841000Y-85541000D01*
X155359000Y-85501000D02*
X152811000Y-85501000D01*
X160389000Y-85501000D02*
X157841000Y-85501000D01*
X155359000Y-85461000D02*
X152776000Y-85461000D01*
X160424000Y-85461000D02*
X157841000Y-85461000D01*
X155359000Y-85421000D02*
X152742000Y-85421000D01*
X160458000Y-85421000D02*
X157841000Y-85421000D01*
X155359000Y-85381000D02*
X152708000Y-85381000D01*
X160492000Y-85381000D02*
X157841000Y-85381000D01*
X155359000Y-85341000D02*
X152675000Y-85341000D01*
X160525000Y-85341000D02*
X157841000Y-85341000D01*
X155359000Y-85301000D02*
X152643000Y-85301000D01*
X160557000Y-85301000D02*
X157841000Y-85301000D01*
X155359000Y-85261000D02*
X152611000Y-85261000D01*
X160589000Y-85261000D02*
X157841000Y-85261000D01*
X155359000Y-85221000D02*
X152580000Y-85221000D01*
X160620000Y-85221000D02*
X157841000Y-85221000D01*
X155359000Y-85181000D02*
X152550000Y-85181000D01*
X160650000Y-85181000D02*
X157841000Y-85181000D01*
X155359000Y-85141000D02*
X152520000Y-85141000D01*
X160680000Y-85141000D02*
X157841000Y-85141000D01*
X155359000Y-85101000D02*
X152490000Y-85101000D01*
X160710000Y-85101000D02*
X157841000Y-85101000D01*
X155359000Y-85061000D02*
X152462000Y-85061000D01*
X160738000Y-85061000D02*
X157841000Y-85061000D01*
X155359000Y-85021000D02*
X152434000Y-85021000D01*
X160766000Y-85021000D02*
X157841000Y-85021000D01*
X155359000Y-84981000D02*
X152406000Y-84981000D01*
X160794000Y-84981000D02*
X157841000Y-84981000D01*
X155359000Y-84941000D02*
X152379000Y-84941000D01*
X160821000Y-84941000D02*
X157841000Y-84941000D01*
X155359000Y-84901000D02*
X152353000Y-84901000D01*
X160847000Y-84901000D02*
X157841000Y-84901000D01*
X155359000Y-84861000D02*
X152327000Y-84861000D01*
X160873000Y-84861000D02*
X157841000Y-84861000D01*
X155359000Y-84821000D02*
X152302000Y-84821000D01*
X160898000Y-84821000D02*
X157841000Y-84821000D01*
X155359000Y-84781000D02*
X152277000Y-84781000D01*
X160923000Y-84781000D02*
X157841000Y-84781000D01*
X155359000Y-84741000D02*
X152253000Y-84741000D01*
X160947000Y-84741000D02*
X157841000Y-84741000D01*
X155359000Y-84701000D02*
X152229000Y-84701000D01*
X160971000Y-84701000D02*
X157841000Y-84701000D01*
X155359000Y-84661000D02*
X152205000Y-84661000D01*
X160995000Y-84661000D02*
X157841000Y-84661000D01*
X155359000Y-84621000D02*
X152183000Y-84621000D01*
X161017000Y-84621000D02*
X157841000Y-84621000D01*
X155359000Y-84581000D02*
X152160000Y-84581000D01*
X161040000Y-84581000D02*
X157841000Y-84581000D01*
X155359000Y-84541000D02*
X152138000Y-84541000D01*
X161062000Y-84541000D02*
X157841000Y-84541000D01*
X155359000Y-84501000D02*
X152117000Y-84501000D01*
X161083000Y-84501000D02*
X157841000Y-84501000D01*
X155359000Y-84461000D02*
X152096000Y-84461000D01*
X161104000Y-84461000D02*
X157841000Y-84461000D01*
X155359000Y-84421000D02*
X152075000Y-84421000D01*
X161125000Y-84421000D02*
X157841000Y-84421000D01*
X155359000Y-84381000D02*
X152055000Y-84381000D01*
X161145000Y-84381000D02*
X157841000Y-84381000D01*
X155359000Y-84341000D02*
X152036000Y-84341000D01*
X161164000Y-84341000D02*
X157841000Y-84341000D01*
X155359000Y-84301000D02*
X152016000Y-84301000D01*
X161184000Y-84301000D02*
X157841000Y-84301000D01*
X155359000Y-84261000D02*
X151997000Y-84261000D01*
X161203000Y-84261000D02*
X157841000Y-84261000D01*
X155359000Y-84221000D02*
X151979000Y-84221000D01*
X161221000Y-84221000D02*
X157841000Y-84221000D01*
X155359000Y-84181000D02*
X151961000Y-84181000D01*
X161239000Y-84181000D02*
X157841000Y-84181000D01*
X155359000Y-84141000D02*
X151943000Y-84141000D01*
X161257000Y-84141000D02*
X157841000Y-84141000D01*
X155359000Y-84101000D02*
X151926000Y-84101000D01*
X161274000Y-84101000D02*
X157841000Y-84101000D01*
X155359000Y-84061000D02*
X151910000Y-84061000D01*
X161290000Y-84061000D02*
X157841000Y-84061000D01*
X155359000Y-84021000D02*
X151893000Y-84021000D01*
X161307000Y-84021000D02*
X157841000Y-84021000D01*
X155359000Y-83981000D02*
X151877000Y-83981000D01*
X161323000Y-83981000D02*
X157841000Y-83981000D01*
X155359000Y-83941000D02*
X151862000Y-83941000D01*
X161338000Y-83941000D02*
X157841000Y-83941000D01*
X155359000Y-83901000D02*
X151846000Y-83901000D01*
X161354000Y-83901000D02*
X157841000Y-83901000D01*
X155359000Y-83861000D02*
X151832000Y-83861000D01*
X161368000Y-83861000D02*
X157841000Y-83861000D01*
X155359000Y-83821000D02*
X151817000Y-83821000D01*
X161383000Y-83821000D02*
X157841000Y-83821000D01*
X155359000Y-83781000D02*
X151803000Y-83781000D01*
X161397000Y-83781000D02*
X157841000Y-83781000D01*
X155359000Y-83741000D02*
X151789000Y-83741000D01*
X161411000Y-83741000D02*
X157841000Y-83741000D01*
X155359000Y-83701000D02*
X151776000Y-83701000D01*
X161424000Y-83701000D02*
X157841000Y-83701000D01*
X155359000Y-83661000D02*
X151763000Y-83661000D01*
X161437000Y-83661000D02*
X157841000Y-83661000D01*
X155359000Y-83621000D02*
X151750000Y-83621000D01*
X161450000Y-83621000D02*
X157841000Y-83621000D01*
X155359000Y-83581000D02*
X151738000Y-83581000D01*
X161462000Y-83581000D02*
X157841000Y-83581000D01*
X155359000Y-83541000D02*
X151726000Y-83541000D01*
X161474000Y-83541000D02*
X157841000Y-83541000D01*
X155359000Y-83501000D02*
X151715000Y-83501000D01*
X161485000Y-83501000D02*
X157841000Y-83501000D01*
X155359000Y-83461000D02*
X151703000Y-83461000D01*
X161497000Y-83461000D02*
X157841000Y-83461000D01*
X155359000Y-83421000D02*
X151693000Y-83421000D01*
X161507000Y-83421000D02*
X157841000Y-83421000D01*
X155359000Y-83381000D02*
X151682000Y-83381000D01*
X161518000Y-83381000D02*
X157841000Y-83381000D01*
X161528000Y-83341000D02*
X151672000Y-83341000D01*
X161538000Y-83301000D02*
X151662000Y-83301000D01*
X161547000Y-83261000D02*
X151653000Y-83261000D01*
X161556000Y-83221000D02*
X151644000Y-83221000D01*
X161565000Y-83181000D02*
X151635000Y-83181000D01*
X161574000Y-83141000D02*
X151626000Y-83141000D01*
X161582000Y-83101000D02*
X151618000Y-83101000D01*
X161590000Y-83061000D02*
X151610000Y-83061000D01*
X161597000Y-83021000D02*
X151603000Y-83021000D01*
X161604000Y-82981000D02*
X151596000Y-82981000D01*
X161611000Y-82941000D02*
X151589000Y-82941000D01*
X161618000Y-82901000D02*
X151582000Y-82901000D01*
X161624000Y-82861000D02*
X151576000Y-82861000D01*
X161630000Y-82821000D02*
X151570000Y-82821000D01*
X161635000Y-82780000D02*
X151565000Y-82780000D01*
X161640000Y-82740000D02*
X151560000Y-82740000D01*
X161645000Y-82700000D02*
X151555000Y-82700000D01*
X161650000Y-82660000D02*
X151550000Y-82660000D01*
X161654000Y-82620000D02*
X151546000Y-82620000D01*
X161658000Y-82580000D02*
X151542000Y-82580000D01*
X161662000Y-82540000D02*
X151538000Y-82540000D01*
X161665000Y-82500000D02*
X151535000Y-82500000D01*
X161668000Y-82460000D02*
X151532000Y-82460000D01*
X161670000Y-82420000D02*
X151530000Y-82420000D01*
X161673000Y-82380000D02*
X151527000Y-82380000D01*
X161675000Y-82340000D02*
X151525000Y-82340000D01*
X161677000Y-82300000D02*
X151523000Y-82300000D01*
X161678000Y-82260000D02*
X151522000Y-82260000D01*
X161679000Y-82220000D02*
X151521000Y-82220000D01*
X161680000Y-82180000D02*
X151520000Y-82180000D01*
X161680000Y-82140000D02*
X151520000Y-82140000D01*
X161680000Y-82100000D02*
X151520000Y-82100000D01*
X161720000Y-82100000D02*
G75*
G03X161720000Y-82100000I-5120000J0D01*
G01*
X160375000Y-61620354D02*
X159375000Y-61620354D01*
X159875000Y-61120354D02*
X159875000Y-62120354D01*
X157599000Y-71681000D02*
X156401000Y-71681000D01*
X157862000Y-71641000D02*
X156138000Y-71641000D01*
X158062000Y-71601000D02*
X155938000Y-71601000D01*
X158230000Y-71561000D02*
X155770000Y-71561000D01*
X158378000Y-71521000D02*
X155622000Y-71521000D01*
X158510000Y-71481000D02*
X155490000Y-71481000D01*
X158630000Y-71441000D02*
X155370000Y-71441000D01*
X158742000Y-71401000D02*
X155258000Y-71401000D01*
X158846000Y-71361000D02*
X155154000Y-71361000D01*
X158944000Y-71321000D02*
X155056000Y-71321000D01*
X159037000Y-71281000D02*
X154963000Y-71281000D01*
X159125000Y-71241000D02*
X154875000Y-71241000D01*
X159209000Y-71201000D02*
X154791000Y-71201000D01*
X159289000Y-71161000D02*
X154711000Y-71161000D01*
X159365000Y-71121000D02*
X154635000Y-71121000D01*
X159439000Y-71081000D02*
X154561000Y-71081000D01*
X159510000Y-71041000D02*
X154490000Y-71041000D01*
X159579000Y-71001000D02*
X154421000Y-71001000D01*
X159645000Y-70961000D02*
X154355000Y-70961000D01*
X159709000Y-70921000D02*
X154291000Y-70921000D01*
X159770000Y-70881000D02*
X154230000Y-70881000D01*
X159830000Y-70841000D02*
X154170000Y-70841000D01*
X159889000Y-70801000D02*
X154111000Y-70801000D01*
X159945000Y-70761000D02*
X154055000Y-70761000D01*
X160000000Y-70721000D02*
X154000000Y-70721000D01*
X160054000Y-70681000D02*
X153946000Y-70681000D01*
X160106000Y-70641000D02*
X153894000Y-70641000D01*
X160156000Y-70601000D02*
X153844000Y-70601000D01*
X160206000Y-70561000D02*
X153794000Y-70561000D01*
X160254000Y-70521000D02*
X153746000Y-70521000D01*
X160301000Y-70481000D02*
X153699000Y-70481000D01*
X160347000Y-70441000D02*
X153653000Y-70441000D01*
X160392000Y-70401000D02*
X153608000Y-70401000D01*
X160436000Y-70361000D02*
X153564000Y-70361000D01*
X155759000Y-70321000D02*
X153522000Y-70321000D01*
X160478000Y-70321000D02*
X158241000Y-70321000D01*
X155759000Y-70281000D02*
X153480000Y-70281000D01*
X160520000Y-70281000D02*
X158241000Y-70281000D01*
X155759000Y-70241000D02*
X153439000Y-70241000D01*
X160561000Y-70241000D02*
X158241000Y-70241000D01*
X155759000Y-70201000D02*
X153399000Y-70201000D01*
X160601000Y-70201000D02*
X158241000Y-70201000D01*
X155759000Y-70161000D02*
X153360000Y-70161000D01*
X160640000Y-70161000D02*
X158241000Y-70161000D01*
X155759000Y-70121000D02*
X153321000Y-70121000D01*
X160679000Y-70121000D02*
X158241000Y-70121000D01*
X155759000Y-70081000D02*
X153284000Y-70081000D01*
X160716000Y-70081000D02*
X158241000Y-70081000D01*
X155759000Y-70041000D02*
X153247000Y-70041000D01*
X160753000Y-70041000D02*
X158241000Y-70041000D01*
X155759000Y-70001000D02*
X153211000Y-70001000D01*
X160789000Y-70001000D02*
X158241000Y-70001000D01*
X155759000Y-69961000D02*
X153176000Y-69961000D01*
X160824000Y-69961000D02*
X158241000Y-69961000D01*
X155759000Y-69921000D02*
X153142000Y-69921000D01*
X160858000Y-69921000D02*
X158241000Y-69921000D01*
X155759000Y-69881000D02*
X153108000Y-69881000D01*
X160892000Y-69881000D02*
X158241000Y-69881000D01*
X155759000Y-69841000D02*
X153075000Y-69841000D01*
X160925000Y-69841000D02*
X158241000Y-69841000D01*
X155759000Y-69801000D02*
X153043000Y-69801000D01*
X160957000Y-69801000D02*
X158241000Y-69801000D01*
X155759000Y-69761000D02*
X153011000Y-69761000D01*
X160989000Y-69761000D02*
X158241000Y-69761000D01*
X155759000Y-69721000D02*
X152980000Y-69721000D01*
X161020000Y-69721000D02*
X158241000Y-69721000D01*
X155759000Y-69681000D02*
X152950000Y-69681000D01*
X161050000Y-69681000D02*
X158241000Y-69681000D01*
X155759000Y-69641000D02*
X152920000Y-69641000D01*
X161080000Y-69641000D02*
X158241000Y-69641000D01*
X155759000Y-69601000D02*
X152890000Y-69601000D01*
X161110000Y-69601000D02*
X158241000Y-69601000D01*
X155759000Y-69561000D02*
X152862000Y-69561000D01*
X161138000Y-69561000D02*
X158241000Y-69561000D01*
X155759000Y-69521000D02*
X152834000Y-69521000D01*
X161166000Y-69521000D02*
X158241000Y-69521000D01*
X155759000Y-69481000D02*
X152806000Y-69481000D01*
X161194000Y-69481000D02*
X158241000Y-69481000D01*
X155759000Y-69441000D02*
X152779000Y-69441000D01*
X161221000Y-69441000D02*
X158241000Y-69441000D01*
X155759000Y-69401000D02*
X152753000Y-69401000D01*
X161247000Y-69401000D02*
X158241000Y-69401000D01*
X155759000Y-69361000D02*
X152727000Y-69361000D01*
X161273000Y-69361000D02*
X158241000Y-69361000D01*
X155759000Y-69321000D02*
X152702000Y-69321000D01*
X161298000Y-69321000D02*
X158241000Y-69321000D01*
X155759000Y-69281000D02*
X152677000Y-69281000D01*
X161323000Y-69281000D02*
X158241000Y-69281000D01*
X155759000Y-69241000D02*
X152653000Y-69241000D01*
X161347000Y-69241000D02*
X158241000Y-69241000D01*
X155759000Y-69201000D02*
X152629000Y-69201000D01*
X161371000Y-69201000D02*
X158241000Y-69201000D01*
X155759000Y-69161000D02*
X152605000Y-69161000D01*
X161395000Y-69161000D02*
X158241000Y-69161000D01*
X155759000Y-69121000D02*
X152583000Y-69121000D01*
X161417000Y-69121000D02*
X158241000Y-69121000D01*
X155759000Y-69081000D02*
X152560000Y-69081000D01*
X161440000Y-69081000D02*
X158241000Y-69081000D01*
X155759000Y-69041000D02*
X152538000Y-69041000D01*
X161462000Y-69041000D02*
X158241000Y-69041000D01*
X155759000Y-69001000D02*
X152517000Y-69001000D01*
X161483000Y-69001000D02*
X158241000Y-69001000D01*
X155759000Y-68961000D02*
X152496000Y-68961000D01*
X161504000Y-68961000D02*
X158241000Y-68961000D01*
X155759000Y-68921000D02*
X152475000Y-68921000D01*
X161525000Y-68921000D02*
X158241000Y-68921000D01*
X155759000Y-68881000D02*
X152455000Y-68881000D01*
X161545000Y-68881000D02*
X158241000Y-68881000D01*
X155759000Y-68841000D02*
X152436000Y-68841000D01*
X161564000Y-68841000D02*
X158241000Y-68841000D01*
X155759000Y-68801000D02*
X152416000Y-68801000D01*
X161584000Y-68801000D02*
X158241000Y-68801000D01*
X155759000Y-68761000D02*
X152397000Y-68761000D01*
X161603000Y-68761000D02*
X158241000Y-68761000D01*
X155759000Y-68721000D02*
X152379000Y-68721000D01*
X161621000Y-68721000D02*
X158241000Y-68721000D01*
X155759000Y-68681000D02*
X152361000Y-68681000D01*
X161639000Y-68681000D02*
X158241000Y-68681000D01*
X155759000Y-68641000D02*
X152343000Y-68641000D01*
X161657000Y-68641000D02*
X158241000Y-68641000D01*
X155759000Y-68601000D02*
X152326000Y-68601000D01*
X161674000Y-68601000D02*
X158241000Y-68601000D01*
X155759000Y-68561000D02*
X152310000Y-68561000D01*
X161690000Y-68561000D02*
X158241000Y-68561000D01*
X155759000Y-68521000D02*
X152293000Y-68521000D01*
X161707000Y-68521000D02*
X158241000Y-68521000D01*
X155759000Y-68481000D02*
X152277000Y-68481000D01*
X161723000Y-68481000D02*
X158241000Y-68481000D01*
X155759000Y-68441000D02*
X152262000Y-68441000D01*
X161738000Y-68441000D02*
X158241000Y-68441000D01*
X155759000Y-68401000D02*
X152246000Y-68401000D01*
X161754000Y-68401000D02*
X158241000Y-68401000D01*
X155759000Y-68361000D02*
X152232000Y-68361000D01*
X161768000Y-68361000D02*
X158241000Y-68361000D01*
X155759000Y-68321000D02*
X152217000Y-68321000D01*
X161783000Y-68321000D02*
X158241000Y-68321000D01*
X155759000Y-68281000D02*
X152203000Y-68281000D01*
X161797000Y-68281000D02*
X158241000Y-68281000D01*
X155759000Y-68241000D02*
X152189000Y-68241000D01*
X161811000Y-68241000D02*
X158241000Y-68241000D01*
X155759000Y-68201000D02*
X152176000Y-68201000D01*
X161824000Y-68201000D02*
X158241000Y-68201000D01*
X155759000Y-68161000D02*
X152163000Y-68161000D01*
X161837000Y-68161000D02*
X158241000Y-68161000D01*
X155759000Y-68121000D02*
X152150000Y-68121000D01*
X161850000Y-68121000D02*
X158241000Y-68121000D01*
X155759000Y-68081000D02*
X152138000Y-68081000D01*
X161862000Y-68081000D02*
X158241000Y-68081000D01*
X155759000Y-68041000D02*
X152126000Y-68041000D01*
X161874000Y-68041000D02*
X158241000Y-68041000D01*
X155759000Y-68001000D02*
X152115000Y-68001000D01*
X161885000Y-68001000D02*
X158241000Y-68001000D01*
X155759000Y-67961000D02*
X152103000Y-67961000D01*
X161897000Y-67961000D02*
X158241000Y-67961000D01*
X155759000Y-67921000D02*
X152093000Y-67921000D01*
X161907000Y-67921000D02*
X158241000Y-67921000D01*
X155759000Y-67881000D02*
X152082000Y-67881000D01*
X161918000Y-67881000D02*
X158241000Y-67881000D01*
X161928000Y-67841000D02*
X152072000Y-67841000D01*
X161938000Y-67801000D02*
X152062000Y-67801000D01*
X161947000Y-67761000D02*
X152053000Y-67761000D01*
X161956000Y-67721000D02*
X152044000Y-67721000D01*
X161965000Y-67681000D02*
X152035000Y-67681000D01*
X161974000Y-67641000D02*
X152026000Y-67641000D01*
X161982000Y-67601000D02*
X152018000Y-67601000D01*
X161990000Y-67561000D02*
X152010000Y-67561000D01*
X161997000Y-67521000D02*
X152003000Y-67521000D01*
X162004000Y-67481000D02*
X151996000Y-67481000D01*
X162011000Y-67441000D02*
X151989000Y-67441000D01*
X162018000Y-67401000D02*
X151982000Y-67401000D01*
X162024000Y-67361000D02*
X151976000Y-67361000D01*
X162030000Y-67321000D02*
X151970000Y-67321000D01*
X162035000Y-67280000D02*
X151965000Y-67280000D01*
X162040000Y-67240000D02*
X151960000Y-67240000D01*
X162045000Y-67200000D02*
X151955000Y-67200000D01*
X162050000Y-67160000D02*
X151950000Y-67160000D01*
X162054000Y-67120000D02*
X151946000Y-67120000D01*
X162058000Y-67080000D02*
X151942000Y-67080000D01*
X162062000Y-67040000D02*
X151938000Y-67040000D01*
X162065000Y-67000000D02*
X151935000Y-67000000D01*
X162068000Y-66960000D02*
X151932000Y-66960000D01*
X162070000Y-66920000D02*
X151930000Y-66920000D01*
X162073000Y-66880000D02*
X151927000Y-66880000D01*
X162075000Y-66840000D02*
X151925000Y-66840000D01*
X162077000Y-66800000D02*
X151923000Y-66800000D01*
X162078000Y-66760000D02*
X151922000Y-66760000D01*
X162079000Y-66720000D02*
X151921000Y-66720000D01*
X162080000Y-66680000D02*
X151920000Y-66680000D01*
X162080000Y-66640000D02*
X151920000Y-66640000D01*
X162080000Y-66600000D02*
X151920000Y-66600000D01*
X162120000Y-66600000D02*
G75*
G03X162120000Y-66600000I-5120000J0D01*
G01*
X141820000Y-76225000D02*
X141820000Y-76670000D01*
X141820000Y-73930000D02*
X141820000Y-74375000D01*
X135580000Y-76225000D02*
X135580000Y-76670000D01*
X135580000Y-73930000D02*
X135580000Y-74375000D01*
X135580000Y-76670000D02*
X141820000Y-76670000D01*
X135580000Y-73930000D02*
X141820000Y-73930000D01*
X141820000Y-72925000D02*
X141820000Y-73370000D01*
X141820000Y-70630000D02*
X141820000Y-71075000D01*
X135580000Y-72925000D02*
X135580000Y-73370000D01*
X135580000Y-70630000D02*
X135580000Y-71075000D01*
X135580000Y-73370000D02*
X141820000Y-73370000D01*
X135580000Y-70630000D02*
X141820000Y-70630000D01*
X128675000Y-75820354D02*
X127675000Y-75820354D01*
X128175000Y-75320354D02*
X128175000Y-76320354D01*
X125899000Y-85881000D02*
X124701000Y-85881000D01*
X126162000Y-85841000D02*
X124438000Y-85841000D01*
X126362000Y-85801000D02*
X124238000Y-85801000D01*
X126530000Y-85761000D02*
X124070000Y-85761000D01*
X126678000Y-85721000D02*
X123922000Y-85721000D01*
X126810000Y-85681000D02*
X123790000Y-85681000D01*
X126930000Y-85641000D02*
X123670000Y-85641000D01*
X127042000Y-85601000D02*
X123558000Y-85601000D01*
X127146000Y-85561000D02*
X123454000Y-85561000D01*
X127244000Y-85521000D02*
X123356000Y-85521000D01*
X127337000Y-85481000D02*
X123263000Y-85481000D01*
X127425000Y-85441000D02*
X123175000Y-85441000D01*
X127509000Y-85401000D02*
X123091000Y-85401000D01*
X127589000Y-85361000D02*
X123011000Y-85361000D01*
X127665000Y-85321000D02*
X122935000Y-85321000D01*
X127739000Y-85281000D02*
X122861000Y-85281000D01*
X127810000Y-85241000D02*
X122790000Y-85241000D01*
X127879000Y-85201000D02*
X122721000Y-85201000D01*
X127945000Y-85161000D02*
X122655000Y-85161000D01*
X128009000Y-85121000D02*
X122591000Y-85121000D01*
X128070000Y-85081000D02*
X122530000Y-85081000D01*
X128130000Y-85041000D02*
X122470000Y-85041000D01*
X128189000Y-85001000D02*
X122411000Y-85001000D01*
X128245000Y-84961000D02*
X122355000Y-84961000D01*
X128300000Y-84921000D02*
X122300000Y-84921000D01*
X128354000Y-84881000D02*
X122246000Y-84881000D01*
X128406000Y-84841000D02*
X122194000Y-84841000D01*
X128456000Y-84801000D02*
X122144000Y-84801000D01*
X128506000Y-84761000D02*
X122094000Y-84761000D01*
X128554000Y-84721000D02*
X122046000Y-84721000D01*
X128601000Y-84681000D02*
X121999000Y-84681000D01*
X128647000Y-84641000D02*
X121953000Y-84641000D01*
X128692000Y-84601000D02*
X121908000Y-84601000D01*
X128736000Y-84561000D02*
X121864000Y-84561000D01*
X124059000Y-84521000D02*
X121822000Y-84521000D01*
X128778000Y-84521000D02*
X126541000Y-84521000D01*
X124059000Y-84481000D02*
X121780000Y-84481000D01*
X128820000Y-84481000D02*
X126541000Y-84481000D01*
X124059000Y-84441000D02*
X121739000Y-84441000D01*
X128861000Y-84441000D02*
X126541000Y-84441000D01*
X124059000Y-84401000D02*
X121699000Y-84401000D01*
X128901000Y-84401000D02*
X126541000Y-84401000D01*
X124059000Y-84361000D02*
X121660000Y-84361000D01*
X128940000Y-84361000D02*
X126541000Y-84361000D01*
X124059000Y-84321000D02*
X121621000Y-84321000D01*
X128979000Y-84321000D02*
X126541000Y-84321000D01*
X124059000Y-84281000D02*
X121584000Y-84281000D01*
X129016000Y-84281000D02*
X126541000Y-84281000D01*
X124059000Y-84241000D02*
X121547000Y-84241000D01*
X129053000Y-84241000D02*
X126541000Y-84241000D01*
X124059000Y-84201000D02*
X121511000Y-84201000D01*
X129089000Y-84201000D02*
X126541000Y-84201000D01*
X124059000Y-84161000D02*
X121476000Y-84161000D01*
X129124000Y-84161000D02*
X126541000Y-84161000D01*
X124059000Y-84121000D02*
X121442000Y-84121000D01*
X129158000Y-84121000D02*
X126541000Y-84121000D01*
X124059000Y-84081000D02*
X121408000Y-84081000D01*
X129192000Y-84081000D02*
X126541000Y-84081000D01*
X124059000Y-84041000D02*
X121375000Y-84041000D01*
X129225000Y-84041000D02*
X126541000Y-84041000D01*
X124059000Y-84001000D02*
X121343000Y-84001000D01*
X129257000Y-84001000D02*
X126541000Y-84001000D01*
X124059000Y-83961000D02*
X121311000Y-83961000D01*
X129289000Y-83961000D02*
X126541000Y-83961000D01*
X124059000Y-83921000D02*
X121280000Y-83921000D01*
X129320000Y-83921000D02*
X126541000Y-83921000D01*
X124059000Y-83881000D02*
X121250000Y-83881000D01*
X129350000Y-83881000D02*
X126541000Y-83881000D01*
X124059000Y-83841000D02*
X121220000Y-83841000D01*
X129380000Y-83841000D02*
X126541000Y-83841000D01*
X124059000Y-83801000D02*
X121190000Y-83801000D01*
X129410000Y-83801000D02*
X126541000Y-83801000D01*
X124059000Y-83761000D02*
X121162000Y-83761000D01*
X129438000Y-83761000D02*
X126541000Y-83761000D01*
X124059000Y-83721000D02*
X121134000Y-83721000D01*
X129466000Y-83721000D02*
X126541000Y-83721000D01*
X124059000Y-83681000D02*
X121106000Y-83681000D01*
X129494000Y-83681000D02*
X126541000Y-83681000D01*
X124059000Y-83641000D02*
X121079000Y-83641000D01*
X129521000Y-83641000D02*
X126541000Y-83641000D01*
X124059000Y-83601000D02*
X121053000Y-83601000D01*
X129547000Y-83601000D02*
X126541000Y-83601000D01*
X124059000Y-83561000D02*
X121027000Y-83561000D01*
X129573000Y-83561000D02*
X126541000Y-83561000D01*
X124059000Y-83521000D02*
X121002000Y-83521000D01*
X129598000Y-83521000D02*
X126541000Y-83521000D01*
X124059000Y-83481000D02*
X120977000Y-83481000D01*
X129623000Y-83481000D02*
X126541000Y-83481000D01*
X124059000Y-83441000D02*
X120953000Y-83441000D01*
X129647000Y-83441000D02*
X126541000Y-83441000D01*
X124059000Y-83401000D02*
X120929000Y-83401000D01*
X129671000Y-83401000D02*
X126541000Y-83401000D01*
X124059000Y-83361000D02*
X120905000Y-83361000D01*
X129695000Y-83361000D02*
X126541000Y-83361000D01*
X124059000Y-83321000D02*
X120883000Y-83321000D01*
X129717000Y-83321000D02*
X126541000Y-83321000D01*
X124059000Y-83281000D02*
X120860000Y-83281000D01*
X129740000Y-83281000D02*
X126541000Y-83281000D01*
X124059000Y-83241000D02*
X120838000Y-83241000D01*
X129762000Y-83241000D02*
X126541000Y-83241000D01*
X124059000Y-83201000D02*
X120817000Y-83201000D01*
X129783000Y-83201000D02*
X126541000Y-83201000D01*
X124059000Y-83161000D02*
X120796000Y-83161000D01*
X129804000Y-83161000D02*
X126541000Y-83161000D01*
X124059000Y-83121000D02*
X120775000Y-83121000D01*
X129825000Y-83121000D02*
X126541000Y-83121000D01*
X124059000Y-83081000D02*
X120755000Y-83081000D01*
X129845000Y-83081000D02*
X126541000Y-83081000D01*
X124059000Y-83041000D02*
X120736000Y-83041000D01*
X129864000Y-83041000D02*
X126541000Y-83041000D01*
X124059000Y-83001000D02*
X120716000Y-83001000D01*
X129884000Y-83001000D02*
X126541000Y-83001000D01*
X124059000Y-82961000D02*
X120697000Y-82961000D01*
X129903000Y-82961000D02*
X126541000Y-82961000D01*
X124059000Y-82921000D02*
X120679000Y-82921000D01*
X129921000Y-82921000D02*
X126541000Y-82921000D01*
X124059000Y-82881000D02*
X120661000Y-82881000D01*
X129939000Y-82881000D02*
X126541000Y-82881000D01*
X124059000Y-82841000D02*
X120643000Y-82841000D01*
X129957000Y-82841000D02*
X126541000Y-82841000D01*
X124059000Y-82801000D02*
X120626000Y-82801000D01*
X129974000Y-82801000D02*
X126541000Y-82801000D01*
X124059000Y-82761000D02*
X120610000Y-82761000D01*
X129990000Y-82761000D02*
X126541000Y-82761000D01*
X124059000Y-82721000D02*
X120593000Y-82721000D01*
X130007000Y-82721000D02*
X126541000Y-82721000D01*
X124059000Y-82681000D02*
X120577000Y-82681000D01*
X130023000Y-82681000D02*
X126541000Y-82681000D01*
X124059000Y-82641000D02*
X120562000Y-82641000D01*
X130038000Y-82641000D02*
X126541000Y-82641000D01*
X124059000Y-82601000D02*
X120546000Y-82601000D01*
X130054000Y-82601000D02*
X126541000Y-82601000D01*
X124059000Y-82561000D02*
X120532000Y-82561000D01*
X130068000Y-82561000D02*
X126541000Y-82561000D01*
X124059000Y-82521000D02*
X120517000Y-82521000D01*
X130083000Y-82521000D02*
X126541000Y-82521000D01*
X124059000Y-82481000D02*
X120503000Y-82481000D01*
X130097000Y-82481000D02*
X126541000Y-82481000D01*
X124059000Y-82441000D02*
X120489000Y-82441000D01*
X130111000Y-82441000D02*
X126541000Y-82441000D01*
X124059000Y-82401000D02*
X120476000Y-82401000D01*
X130124000Y-82401000D02*
X126541000Y-82401000D01*
X124059000Y-82361000D02*
X120463000Y-82361000D01*
X130137000Y-82361000D02*
X126541000Y-82361000D01*
X124059000Y-82321000D02*
X120450000Y-82321000D01*
X130150000Y-82321000D02*
X126541000Y-82321000D01*
X124059000Y-82281000D02*
X120438000Y-82281000D01*
X130162000Y-82281000D02*
X126541000Y-82281000D01*
X124059000Y-82241000D02*
X120426000Y-82241000D01*
X130174000Y-82241000D02*
X126541000Y-82241000D01*
X124059000Y-82201000D02*
X120415000Y-82201000D01*
X130185000Y-82201000D02*
X126541000Y-82201000D01*
X124059000Y-82161000D02*
X120403000Y-82161000D01*
X130197000Y-82161000D02*
X126541000Y-82161000D01*
X124059000Y-82121000D02*
X120393000Y-82121000D01*
X130207000Y-82121000D02*
X126541000Y-82121000D01*
X124059000Y-82081000D02*
X120382000Y-82081000D01*
X130218000Y-82081000D02*
X126541000Y-82081000D01*
X130228000Y-82041000D02*
X120372000Y-82041000D01*
X130238000Y-82001000D02*
X120362000Y-82001000D01*
X130247000Y-81961000D02*
X120353000Y-81961000D01*
X130256000Y-81921000D02*
X120344000Y-81921000D01*
X130265000Y-81881000D02*
X120335000Y-81881000D01*
X130274000Y-81841000D02*
X120326000Y-81841000D01*
X130282000Y-81801000D02*
X120318000Y-81801000D01*
X130290000Y-81761000D02*
X120310000Y-81761000D01*
X130297000Y-81721000D02*
X120303000Y-81721000D01*
X130304000Y-81681000D02*
X120296000Y-81681000D01*
X130311000Y-81641000D02*
X120289000Y-81641000D01*
X130318000Y-81601000D02*
X120282000Y-81601000D01*
X130324000Y-81561000D02*
X120276000Y-81561000D01*
X130330000Y-81521000D02*
X120270000Y-81521000D01*
X130335000Y-81480000D02*
X120265000Y-81480000D01*
X130340000Y-81440000D02*
X120260000Y-81440000D01*
X130345000Y-81400000D02*
X120255000Y-81400000D01*
X130350000Y-81360000D02*
X120250000Y-81360000D01*
X130354000Y-81320000D02*
X120246000Y-81320000D01*
X130358000Y-81280000D02*
X120242000Y-81280000D01*
X130362000Y-81240000D02*
X120238000Y-81240000D01*
X130365000Y-81200000D02*
X120235000Y-81200000D01*
X130368000Y-81160000D02*
X120232000Y-81160000D01*
X130370000Y-81120000D02*
X120230000Y-81120000D01*
X130373000Y-81080000D02*
X120227000Y-81080000D01*
X130375000Y-81040000D02*
X120225000Y-81040000D01*
X130377000Y-81000000D02*
X120223000Y-81000000D01*
X130378000Y-80960000D02*
X120222000Y-80960000D01*
X130379000Y-80920000D02*
X120221000Y-80920000D01*
X130380000Y-80880000D02*
X120220000Y-80880000D01*
X130380000Y-80840000D02*
X120220000Y-80840000D01*
X130380000Y-80800000D02*
X120220000Y-80800000D01*
X130420000Y-80800000D02*
G75*
G03X130420000Y-80800000I-5120000J0D01*
G01*
D10*
X131907142Y-69966666D02*
X131954761Y-70014285D01*
X132002380Y-70157142D01*
X132002380Y-70252380D01*
X131954761Y-70395238D01*
X131859523Y-70490476D01*
X131764285Y-70538095D01*
X131573809Y-70585714D01*
X131430952Y-70585714D01*
X131240476Y-70538095D01*
X131145238Y-70490476D01*
X131050000Y-70395238D01*
X131002380Y-70252380D01*
X131002380Y-70157142D01*
X131050000Y-70014285D01*
X131097619Y-69966666D01*
X132002380Y-69014285D02*
X132002380Y-69585714D01*
X132002380Y-69300000D02*
X131002380Y-69300000D01*
X131145238Y-69395238D01*
X131240476Y-69490476D01*
X131288095Y-69585714D01*
X147438095Y-83652380D02*
X147438095Y-84461904D01*
X147485714Y-84557142D01*
X147533333Y-84604761D01*
X147628571Y-84652380D01*
X147819047Y-84652380D01*
X147914285Y-84604761D01*
X147961904Y-84557142D01*
X148009523Y-84461904D01*
X148009523Y-83652380D01*
X148438095Y-83747619D02*
X148485714Y-83700000D01*
X148580952Y-83652380D01*
X148819047Y-83652380D01*
X148914285Y-83700000D01*
X148961904Y-83747619D01*
X149009523Y-83842857D01*
X149009523Y-83938095D01*
X148961904Y-84080952D01*
X148390476Y-84652380D01*
X149009523Y-84652380D01*
X140938095Y-60982380D02*
X140938095Y-61791904D01*
X140985714Y-61887142D01*
X141033333Y-61934761D01*
X141128571Y-61982380D01*
X141319047Y-61982380D01*
X141414285Y-61934761D01*
X141461904Y-61887142D01*
X141509523Y-61791904D01*
X141509523Y-60982380D01*
X142509523Y-61982380D02*
X141938095Y-61982380D01*
X142223809Y-61982380D02*
X142223809Y-60982380D01*
X142128571Y-61125238D01*
X142033333Y-61220476D01*
X141938095Y-61268095D01*
X171432380Y-82716666D02*
X170956190Y-83050000D01*
X171432380Y-83288095D02*
X170432380Y-83288095D01*
X170432380Y-82907142D01*
X170480000Y-82811904D01*
X170527619Y-82764285D01*
X170622857Y-82716666D01*
X170765714Y-82716666D01*
X170860952Y-82764285D01*
X170908571Y-82811904D01*
X170956190Y-82907142D01*
X170956190Y-83288095D01*
X170527619Y-82335714D02*
X170480000Y-82288095D01*
X170432380Y-82192857D01*
X170432380Y-81954761D01*
X170480000Y-81859523D01*
X170527619Y-81811904D01*
X170622857Y-81764285D01*
X170718095Y-81764285D01*
X170860952Y-81811904D01*
X171432380Y-82383333D01*
X171432380Y-81764285D01*
X177272380Y-66816666D02*
X176796190Y-67150000D01*
X177272380Y-67388095D02*
X176272380Y-67388095D01*
X176272380Y-67007142D01*
X176320000Y-66911904D01*
X176367619Y-66864285D01*
X176462857Y-66816666D01*
X176605714Y-66816666D01*
X176700952Y-66864285D01*
X176748571Y-66911904D01*
X176796190Y-67007142D01*
X176796190Y-67388095D01*
X177272380Y-65864285D02*
X177272380Y-66435714D01*
X177272380Y-66150000D02*
X176272380Y-66150000D01*
X176415238Y-66245238D01*
X176510476Y-66340476D01*
X176558095Y-66435714D01*
X189552380Y-75133333D02*
X190266666Y-75133333D01*
X190409523Y-75180952D01*
X190504761Y-75276190D01*
X190552380Y-75419047D01*
X190552380Y-75514285D01*
X189647619Y-74704761D02*
X189600000Y-74657142D01*
X189552380Y-74561904D01*
X189552380Y-74323809D01*
X189600000Y-74228571D01*
X189647619Y-74180952D01*
X189742857Y-74133333D01*
X189838095Y-74133333D01*
X189980952Y-74180952D01*
X190552380Y-74752380D01*
X190552380Y-74133333D01*
X87352380Y-76433333D02*
X88066666Y-76433333D01*
X88209523Y-76480952D01*
X88304761Y-76576190D01*
X88352380Y-76719047D01*
X88352380Y-76814285D01*
X88352380Y-75433333D02*
X88352380Y-76004761D01*
X88352380Y-75719047D02*
X87352380Y-75719047D01*
X87495238Y-75814285D01*
X87590476Y-75909523D01*
X87638095Y-76004761D01*
X166761904Y-83452380D02*
X166761904Y-82452380D01*
X167000000Y-82452380D01*
X167142857Y-82500000D01*
X167238095Y-82595238D01*
X167285714Y-82690476D01*
X167333333Y-82880952D01*
X167333333Y-83023809D01*
X167285714Y-83214285D01*
X167238095Y-83309523D01*
X167142857Y-83404761D01*
X167000000Y-83452380D01*
X166761904Y-83452380D01*
X168190476Y-82452380D02*
X168000000Y-82452380D01*
X167904761Y-82500000D01*
X167857142Y-82547619D01*
X167761904Y-82690476D01*
X167714285Y-82880952D01*
X167714285Y-83261904D01*
X167761904Y-83357142D01*
X167809523Y-83404761D01*
X167904761Y-83452380D01*
X168095238Y-83452380D01*
X168190476Y-83404761D01*
X168238095Y-83357142D01*
X168285714Y-83261904D01*
X168285714Y-83023809D01*
X168238095Y-82928571D01*
X168190476Y-82880952D01*
X168095238Y-82833333D01*
X167904761Y-82833333D01*
X167809523Y-82880952D01*
X167761904Y-82928571D01*
X167714285Y-83023809D01*
X167391904Y-66512380D02*
X167391904Y-65512380D01*
X167630000Y-65512380D01*
X167772857Y-65560000D01*
X167868095Y-65655238D01*
X167915714Y-65750476D01*
X167963333Y-65940952D01*
X167963333Y-66083809D01*
X167915714Y-66274285D01*
X167868095Y-66369523D01*
X167772857Y-66464761D01*
X167630000Y-66512380D01*
X167391904Y-66512380D01*
X168868095Y-65512380D02*
X168391904Y-65512380D01*
X168344285Y-65988571D01*
X168391904Y-65940952D01*
X168487142Y-65893333D01*
X168725238Y-65893333D01*
X168820476Y-65940952D01*
X168868095Y-65988571D01*
X168915714Y-66083809D01*
X168915714Y-66321904D01*
X168868095Y-66417142D01*
X168820476Y-66464761D01*
X168725238Y-66512380D01*
X168487142Y-66512380D01*
X168391904Y-66464761D01*
X168344285Y-66417142D01*
X102211904Y-74452380D02*
X102211904Y-73452380D01*
X102450000Y-73452380D01*
X102592857Y-73500000D01*
X102688095Y-73595238D01*
X102735714Y-73690476D01*
X102783333Y-73880952D01*
X102783333Y-74023809D01*
X102735714Y-74214285D01*
X102688095Y-74309523D01*
X102592857Y-74404761D01*
X102450000Y-74452380D01*
X102211904Y-74452380D01*
X103640476Y-73785714D02*
X103640476Y-74452380D01*
X103402380Y-73404761D02*
X103164285Y-74119047D01*
X103783333Y-74119047D01*
X117438095Y-74452380D02*
X117438095Y-73452380D01*
X118009523Y-74452380D02*
X117580952Y-73880952D01*
X118009523Y-73452380D02*
X117438095Y-74023809D01*
X102211904Y-78202380D02*
X102211904Y-77202380D01*
X102450000Y-77202380D01*
X102592857Y-77250000D01*
X102688095Y-77345238D01*
X102735714Y-77440476D01*
X102783333Y-77630952D01*
X102783333Y-77773809D01*
X102735714Y-77964285D01*
X102688095Y-78059523D01*
X102592857Y-78154761D01*
X102450000Y-78202380D01*
X102211904Y-78202380D01*
X103116666Y-77202380D02*
X103735714Y-77202380D01*
X103402380Y-77583333D01*
X103545238Y-77583333D01*
X103640476Y-77630952D01*
X103688095Y-77678571D01*
X103735714Y-77773809D01*
X103735714Y-78011904D01*
X103688095Y-78107142D01*
X103640476Y-78154761D01*
X103545238Y-78202380D01*
X103259523Y-78202380D01*
X103164285Y-78154761D01*
X103116666Y-78107142D01*
X117438095Y-77952380D02*
X117438095Y-76952380D01*
X118009523Y-77952380D02*
X117580952Y-77380952D01*
X118009523Y-76952380D02*
X117438095Y-77523809D01*
X117261904Y-70952380D02*
X117261904Y-69952380D01*
X117500000Y-69952380D01*
X117642857Y-70000000D01*
X117738095Y-70095238D01*
X117785714Y-70190476D01*
X117833333Y-70380952D01*
X117833333Y-70523809D01*
X117785714Y-70714285D01*
X117738095Y-70809523D01*
X117642857Y-70904761D01*
X117500000Y-70952380D01*
X117261904Y-70952380D01*
X118214285Y-70047619D02*
X118261904Y-70000000D01*
X118357142Y-69952380D01*
X118595238Y-69952380D01*
X118690476Y-70000000D01*
X118738095Y-70047619D01*
X118785714Y-70142857D01*
X118785714Y-70238095D01*
X118738095Y-70380952D01*
X118166666Y-70952380D01*
X118785714Y-70952380D01*
X102988095Y-70952380D02*
X102988095Y-69952380D01*
X103559523Y-70952380D02*
X103130952Y-70380952D01*
X103559523Y-69952380D02*
X102988095Y-70523809D01*
X117551904Y-81452380D02*
X117551904Y-80452380D01*
X117790000Y-80452380D01*
X117932857Y-80500000D01*
X118028095Y-80595238D01*
X118075714Y-80690476D01*
X118123333Y-80880952D01*
X118123333Y-81023809D01*
X118075714Y-81214285D01*
X118028095Y-81309523D01*
X117932857Y-81404761D01*
X117790000Y-81452380D01*
X117551904Y-81452380D01*
X119075714Y-81452380D02*
X118504285Y-81452380D01*
X118790000Y-81452380D02*
X118790000Y-80452380D01*
X118694761Y-80595238D01*
X118599523Y-80690476D01*
X118504285Y-80738095D01*
X103028095Y-81452380D02*
X103028095Y-80452380D01*
X103599523Y-81452380D02*
X103170952Y-80880952D01*
X103599523Y-80452380D02*
X103028095Y-81023809D01*
X150633333Y-75557142D02*
X150585714Y-75604761D01*
X150442857Y-75652380D01*
X150347619Y-75652380D01*
X150204761Y-75604761D01*
X150109523Y-75509523D01*
X150061904Y-75414285D01*
X150014285Y-75223809D01*
X150014285Y-75080952D01*
X150061904Y-74890476D01*
X150109523Y-74795238D01*
X150204761Y-74700000D01*
X150347619Y-74652380D01*
X150442857Y-74652380D01*
X150585714Y-74700000D01*
X150633333Y-74747619D01*
X151204761Y-75080952D02*
X151109523Y-75033333D01*
X151061904Y-74985714D01*
X151014285Y-74890476D01*
X151014285Y-74842857D01*
X151061904Y-74747619D01*
X151109523Y-74700000D01*
X151204761Y-74652380D01*
X151395238Y-74652380D01*
X151490476Y-74700000D01*
X151538095Y-74747619D01*
X151585714Y-74842857D01*
X151585714Y-74890476D01*
X151538095Y-74985714D01*
X151490476Y-75033333D01*
X151395238Y-75080952D01*
X151204761Y-75080952D01*
X151109523Y-75128571D01*
X151061904Y-75176190D01*
X151014285Y-75271428D01*
X151014285Y-75461904D01*
X151061904Y-75557142D01*
X151109523Y-75604761D01*
X151204761Y-75652380D01*
X151395238Y-75652380D01*
X151490476Y-75604761D01*
X151538095Y-75557142D01*
X151585714Y-75461904D01*
X151585714Y-75271428D01*
X151538095Y-75176190D01*
X151490476Y-75128571D01*
X151395238Y-75080952D01*
X150633333Y-72357142D02*
X150585714Y-72404761D01*
X150442857Y-72452380D01*
X150347619Y-72452380D01*
X150204761Y-72404761D01*
X150109523Y-72309523D01*
X150061904Y-72214285D01*
X150014285Y-72023809D01*
X150014285Y-71880952D01*
X150061904Y-71690476D01*
X150109523Y-71595238D01*
X150204761Y-71500000D01*
X150347619Y-71452380D01*
X150442857Y-71452380D01*
X150585714Y-71500000D01*
X150633333Y-71547619D01*
X150966666Y-71452380D02*
X151633333Y-71452380D01*
X151204761Y-72452380D01*
X163207142Y-82266666D02*
X163254761Y-82314285D01*
X163302380Y-82457142D01*
X163302380Y-82552380D01*
X163254761Y-82695238D01*
X163159523Y-82790476D01*
X163064285Y-82838095D01*
X162873809Y-82885714D01*
X162730952Y-82885714D01*
X162540476Y-82838095D01*
X162445238Y-82790476D01*
X162350000Y-82695238D01*
X162302380Y-82552380D01*
X162302380Y-82457142D01*
X162350000Y-82314285D01*
X162397619Y-82266666D01*
X162302380Y-81409523D02*
X162302380Y-81600000D01*
X162350000Y-81695238D01*
X162397619Y-81742857D01*
X162540476Y-81838095D01*
X162730952Y-81885714D01*
X163111904Y-81885714D01*
X163207142Y-81838095D01*
X163254761Y-81790476D01*
X163302380Y-81695238D01*
X163302380Y-81504761D01*
X163254761Y-81409523D01*
X163207142Y-81361904D01*
X163111904Y-81314285D01*
X162873809Y-81314285D01*
X162778571Y-81361904D01*
X162730952Y-81409523D01*
X162683333Y-81504761D01*
X162683333Y-81695238D01*
X162730952Y-81790476D01*
X162778571Y-81838095D01*
X162873809Y-81885714D01*
X163607142Y-66766666D02*
X163654761Y-66814285D01*
X163702380Y-66957142D01*
X163702380Y-67052380D01*
X163654761Y-67195238D01*
X163559523Y-67290476D01*
X163464285Y-67338095D01*
X163273809Y-67385714D01*
X163130952Y-67385714D01*
X162940476Y-67338095D01*
X162845238Y-67290476D01*
X162750000Y-67195238D01*
X162702380Y-67052380D01*
X162702380Y-66957142D01*
X162750000Y-66814285D01*
X162797619Y-66766666D01*
X162702380Y-65861904D02*
X162702380Y-66338095D01*
X163178571Y-66385714D01*
X163130952Y-66338095D01*
X163083333Y-66242857D01*
X163083333Y-66004761D01*
X163130952Y-65909523D01*
X163178571Y-65861904D01*
X163273809Y-65814285D01*
X163511904Y-65814285D01*
X163607142Y-65861904D01*
X163654761Y-65909523D01*
X163702380Y-66004761D01*
X163702380Y-66242857D01*
X163654761Y-66338095D01*
X163607142Y-66385714D01*
X133733333Y-75657142D02*
X133685714Y-75704761D01*
X133542857Y-75752380D01*
X133447619Y-75752380D01*
X133304761Y-75704761D01*
X133209523Y-75609523D01*
X133161904Y-75514285D01*
X133114285Y-75323809D01*
X133114285Y-75180952D01*
X133161904Y-74990476D01*
X133209523Y-74895238D01*
X133304761Y-74800000D01*
X133447619Y-74752380D01*
X133542857Y-74752380D01*
X133685714Y-74800000D01*
X133733333Y-74847619D01*
X134590476Y-75085714D02*
X134590476Y-75752380D01*
X134352380Y-74704761D02*
X134114285Y-75419047D01*
X134733333Y-75419047D01*
X133733333Y-72357142D02*
X133685714Y-72404761D01*
X133542857Y-72452380D01*
X133447619Y-72452380D01*
X133304761Y-72404761D01*
X133209523Y-72309523D01*
X133161904Y-72214285D01*
X133114285Y-72023809D01*
X133114285Y-71880952D01*
X133161904Y-71690476D01*
X133209523Y-71595238D01*
X133304761Y-71500000D01*
X133447619Y-71452380D01*
X133542857Y-71452380D01*
X133685714Y-71500000D01*
X133733333Y-71547619D01*
X134066666Y-71452380D02*
X134685714Y-71452380D01*
X134352380Y-71833333D01*
X134495238Y-71833333D01*
X134590476Y-71880952D01*
X134638095Y-71928571D01*
X134685714Y-72023809D01*
X134685714Y-72261904D01*
X134638095Y-72357142D01*
X134590476Y-72404761D01*
X134495238Y-72452380D01*
X134209523Y-72452380D01*
X134114285Y-72404761D01*
X134066666Y-72357142D01*
X131907142Y-80966666D02*
X131954761Y-81014285D01*
X132002380Y-81157142D01*
X132002380Y-81252380D01*
X131954761Y-81395238D01*
X131859523Y-81490476D01*
X131764285Y-81538095D01*
X131573809Y-81585714D01*
X131430952Y-81585714D01*
X131240476Y-81538095D01*
X131145238Y-81490476D01*
X131050000Y-81395238D01*
X131002380Y-81252380D01*
X131002380Y-81157142D01*
X131050000Y-81014285D01*
X131097619Y-80966666D01*
X131097619Y-80585714D02*
X131050000Y-80538095D01*
X131002380Y-80442857D01*
X131002380Y-80204761D01*
X131050000Y-80109523D01*
X131097619Y-80061904D01*
X131192857Y-80014285D01*
X131288095Y-80014285D01*
X131430952Y-80061904D01*
X132002380Y-80633333D01*
X132002380Y-80014285D01*
M02*
