G04 #@! TF.GenerationSoftware,KiCad,Pcbnew,5.1.5+dfsg1-2build2*
G04 #@! TF.CreationDate,2021-08-20T20:11:23+12:00*
G04 #@! TF.ProjectId,15vDualRailAC-DC,31357644-7561-46c5-9261-696c41432d44,rev?*
G04 #@! TF.SameCoordinates,Original*
G04 #@! TF.FileFunction,Copper,L1,Top*
G04 #@! TF.FilePolarity,Positive*
%FSLAX46Y46*%
G04 Gerber Fmt 4.6, Leading zero omitted, Abs format (unit mm)*
G04 Created by KiCad (PCBNEW 5.1.5+dfsg1-2build2) date 2021-08-20 20:11:23*
%MOMM*%
%LPD*%
G04 APERTURE LIST*
%ADD10C,2.000000*%
%ADD11R,2.000000X2.000000*%
%ADD12O,1.905000X2.000000*%
%ADD13R,1.905000X2.000000*%
%ADD14O,2.400000X2.400000*%
%ADD15C,2.400000*%
%ADD16O,3.960000X1.980000*%
%ADD17R,3.960000X1.980000*%
%ADD18C,1.800000*%
%ADD19R,1.800000X1.800000*%
%ADD20O,2.200000X2.200000*%
%ADD21R,2.200000X2.200000*%
%ADD22C,1.600000*%
%ADD23C,1.500000*%
%ADD24C,2.500000*%
%ADD25C,0.254000*%
G04 APERTURE END LIST*
D10*
X125300000Y-72300000D03*
D11*
X125300000Y-67300000D03*
D12*
X144380000Y-84900000D03*
X141840000Y-84900000D03*
D13*
X139300000Y-84900000D03*
D12*
X144240000Y-65800000D03*
X141700000Y-65800000D03*
D13*
X139160000Y-65800000D03*
D14*
X173900000Y-76200000D03*
D15*
X173900000Y-88900000D03*
D14*
X173900000Y-73000000D03*
D15*
X173900000Y-60300000D03*
D16*
X183000000Y-79800000D03*
X183000000Y-74800000D03*
D17*
X183000000Y-69800000D03*
D16*
X95000000Y-71100000D03*
X95000000Y-76100000D03*
D17*
X95000000Y-81100000D03*
D18*
X166760000Y-87100000D03*
D19*
X169300000Y-87100000D03*
D18*
X166860000Y-62100000D03*
D19*
X169400000Y-62100000D03*
D20*
X105540000Y-74000000D03*
D21*
X115700000Y-74000000D03*
D20*
X105540000Y-77500000D03*
D21*
X115700000Y-77500000D03*
D20*
X115660000Y-70500000D03*
D21*
X105500000Y-70500000D03*
D20*
X115700000Y-81000000D03*
D21*
X105540000Y-81000000D03*
D22*
X148600000Y-75300000D03*
X143600000Y-75300000D03*
X148600000Y-72000000D03*
X143600000Y-72000000D03*
D10*
X156600000Y-84600000D03*
D11*
X156600000Y-79600000D03*
D10*
X157000000Y-69100000D03*
D11*
X157000000Y-64100000D03*
D22*
X141200000Y-75300000D03*
X136200000Y-75300000D03*
X141200000Y-72000000D03*
X136200000Y-72000000D03*
D10*
X125300000Y-83300000D03*
D11*
X125300000Y-78300000D03*
D23*
X95000000Y-76100000D02*
X99900000Y-76100000D01*
X91200000Y-76100000D02*
X95000000Y-76100000D01*
X95000000Y-76100000D02*
X95000000Y-78200000D01*
X95000000Y-76100000D02*
X95000000Y-73800000D01*
X115700000Y-77500000D02*
X115700000Y-74000000D01*
X118300000Y-74000000D02*
X120500000Y-71800000D01*
X115700000Y-74000000D02*
X118300000Y-74000000D01*
X122800000Y-67300000D02*
X125300000Y-67300000D01*
X120500000Y-69600000D02*
X122800000Y-67300000D01*
X120500000Y-71800000D02*
X120500000Y-69600000D01*
X131500000Y-67300000D02*
X136200000Y-72000000D01*
X125300000Y-67300000D02*
X131500000Y-67300000D01*
X133000000Y-65800000D02*
X139160000Y-65800000D01*
X131500000Y-67300000D02*
X133000000Y-65800000D01*
X123000000Y-81000000D02*
X125300000Y-83300000D01*
X115700000Y-81000000D02*
X123000000Y-81000000D01*
X125300000Y-83300000D02*
X132700000Y-83300000D01*
X132700000Y-83300000D02*
X136700000Y-87300000D01*
X141840000Y-86022502D02*
X141840000Y-84900000D01*
X140562502Y-87300000D02*
X141840000Y-86022502D01*
X136700000Y-87300000D02*
X140562502Y-87300000D01*
X141840000Y-75940000D02*
X141200000Y-75300000D01*
X141840000Y-84900000D02*
X141840000Y-75940000D01*
X115700000Y-81000000D02*
X112700000Y-81000000D01*
X112700000Y-81000000D02*
X110800000Y-79100000D01*
X114104366Y-70500000D02*
X115660000Y-70500000D01*
X110800000Y-73804366D02*
X114104366Y-70500000D01*
X110800000Y-79100000D02*
X110800000Y-73804366D01*
X143600000Y-72000000D02*
X143600000Y-69400000D01*
X144240000Y-68760000D02*
X144240000Y-65800000D01*
X143600000Y-69400000D02*
X144240000Y-68760000D01*
X155300000Y-65800000D02*
X157000000Y-64100000D01*
X144240000Y-65800000D02*
X155300000Y-65800000D01*
X164860000Y-64100000D02*
X166860000Y-62100000D01*
X157000000Y-64100000D02*
X164860000Y-64100000D01*
X179520000Y-69800000D02*
X183000000Y-69800000D01*
X173287208Y-69800000D02*
X179520000Y-69800000D01*
X166860000Y-63372792D02*
X173287208Y-69800000D01*
X166860000Y-62100000D02*
X166860000Y-63372792D01*
X144380000Y-79520000D02*
X148600000Y-75300000D01*
X144380000Y-84900000D02*
X144380000Y-79520000D01*
X156300000Y-84900000D02*
X156600000Y-84600000D01*
X144380000Y-84900000D02*
X156300000Y-84900000D01*
X165000000Y-76200000D02*
X173900000Y-76200000D01*
X156600000Y-84600000D02*
X165000000Y-76200000D01*
X173900000Y-76200000D02*
X177500000Y-79800000D01*
X177500000Y-79800000D02*
X183000000Y-79800000D01*
D24*
X105540000Y-81000000D02*
X105540000Y-77500000D01*
D23*
X105440000Y-81100000D02*
X105540000Y-81000000D01*
D24*
X95000000Y-81100000D02*
X105440000Y-81100000D01*
D23*
X104900000Y-71100000D02*
X105500000Y-70500000D01*
D24*
X95000000Y-71100000D02*
X104900000Y-71100000D01*
D23*
X105540000Y-70540000D02*
X105500000Y-70500000D01*
D24*
X105540000Y-74000000D02*
X105540000Y-70540000D01*
D23*
X172100000Y-62100000D02*
X173900000Y-60300000D01*
X169400000Y-62100000D02*
X172100000Y-62100000D01*
X171100000Y-88900000D02*
X169300000Y-87100000D01*
X173900000Y-88900000D02*
X171100000Y-88900000D01*
D25*
G36*
X172273844Y-59430801D02*
G01*
X172135518Y-59764750D01*
X172065000Y-60119268D01*
X172065000Y-60176314D01*
X171526315Y-60715000D01*
X170709981Y-60715000D01*
X170654494Y-60669463D01*
X170544180Y-60610498D01*
X170424482Y-60574188D01*
X170300000Y-60561928D01*
X168500000Y-60561928D01*
X168375518Y-60574188D01*
X168255820Y-60610498D01*
X168145506Y-60669463D01*
X168048815Y-60748815D01*
X167969463Y-60845506D01*
X167910498Y-60955820D01*
X167904944Y-60974127D01*
X167838505Y-60907688D01*
X167587095Y-60739701D01*
X167307743Y-60623989D01*
X167011184Y-60565000D01*
X166708816Y-60565000D01*
X166412257Y-60623989D01*
X166132905Y-60739701D01*
X165881495Y-60907688D01*
X165667688Y-61121495D01*
X165499701Y-61372905D01*
X165408690Y-61592625D01*
X164286315Y-62715000D01*
X158505501Y-62715000D01*
X158451185Y-62648815D01*
X158354494Y-62569463D01*
X158244180Y-62510498D01*
X158124482Y-62474188D01*
X158000000Y-62461928D01*
X156000000Y-62461928D01*
X155875518Y-62474188D01*
X155755820Y-62510498D01*
X155645506Y-62569463D01*
X155548815Y-62648815D01*
X155469463Y-62745506D01*
X155410498Y-62855820D01*
X155374188Y-62975518D01*
X155361928Y-63100000D01*
X155361928Y-63779386D01*
X154726315Y-64415000D01*
X145105364Y-64415000D01*
X144850448Y-64278745D01*
X144551203Y-64187970D01*
X144240000Y-64157319D01*
X143928796Y-64187970D01*
X143629551Y-64278745D01*
X143353765Y-64426155D01*
X143112037Y-64624537D01*
X142970000Y-64797609D01*
X142827963Y-64624537D01*
X142586234Y-64426155D01*
X142310448Y-64278745D01*
X142011203Y-64187970D01*
X141700000Y-64157319D01*
X141388796Y-64187970D01*
X141089551Y-64278745D01*
X140813765Y-64426155D01*
X140687905Y-64529446D01*
X140643037Y-64445506D01*
X140563685Y-64348815D01*
X140466994Y-64269463D01*
X140356680Y-64210498D01*
X140236982Y-64174188D01*
X140112500Y-64161928D01*
X138207500Y-64161928D01*
X138083018Y-64174188D01*
X137963320Y-64210498D01*
X137853006Y-64269463D01*
X137756315Y-64348815D01*
X137701999Y-64415000D01*
X133068026Y-64415000D01*
X132999999Y-64408300D01*
X132931972Y-64415000D01*
X132931963Y-64415000D01*
X132728493Y-64435040D01*
X132467419Y-64514236D01*
X132226812Y-64642843D01*
X132226810Y-64642844D01*
X132226811Y-64642844D01*
X132068766Y-64772548D01*
X132068764Y-64772550D01*
X132015919Y-64815919D01*
X131972550Y-64868764D01*
X130926315Y-65915000D01*
X126805501Y-65915000D01*
X126751185Y-65848815D01*
X126654494Y-65769463D01*
X126544180Y-65710498D01*
X126424482Y-65674188D01*
X126300000Y-65661928D01*
X124300000Y-65661928D01*
X124175518Y-65674188D01*
X124055820Y-65710498D01*
X123945506Y-65769463D01*
X123848815Y-65848815D01*
X123794499Y-65915000D01*
X122868026Y-65915000D01*
X122799999Y-65908300D01*
X122731972Y-65915000D01*
X122731963Y-65915000D01*
X122528493Y-65935040D01*
X122267419Y-66014236D01*
X122026812Y-66142843D01*
X121986998Y-66175518D01*
X121868766Y-66272548D01*
X121868764Y-66272550D01*
X121815919Y-66315919D01*
X121772550Y-66368764D01*
X119568764Y-68572551D01*
X119515920Y-68615919D01*
X119472551Y-68668764D01*
X119472548Y-68668767D01*
X119342844Y-68826812D01*
X119214236Y-69067420D01*
X119135040Y-69328493D01*
X119108300Y-69600000D01*
X119115001Y-69668039D01*
X119115000Y-71226314D01*
X117726315Y-72615000D01*
X117367683Y-72615000D01*
X117330537Y-72545506D01*
X117251185Y-72448815D01*
X117154494Y-72369463D01*
X117044180Y-72310498D01*
X116924482Y-72274188D01*
X116800000Y-72261928D01*
X114600000Y-72261928D01*
X114475518Y-72274188D01*
X114355820Y-72310498D01*
X114245506Y-72369463D01*
X114148815Y-72448815D01*
X114069463Y-72545506D01*
X114010498Y-72655820D01*
X113974188Y-72775518D01*
X113961928Y-72900000D01*
X113961928Y-75100000D01*
X113974188Y-75224482D01*
X114010498Y-75344180D01*
X114069463Y-75454494D01*
X114148815Y-75551185D01*
X114245506Y-75630537D01*
X114315001Y-75667683D01*
X114315000Y-75832317D01*
X114245506Y-75869463D01*
X114148815Y-75948815D01*
X114069463Y-76045506D01*
X114010498Y-76155820D01*
X113974188Y-76275518D01*
X113961928Y-76400000D01*
X113961928Y-78600000D01*
X113974188Y-78724482D01*
X114010498Y-78844180D01*
X114069463Y-78954494D01*
X114148815Y-79051185D01*
X114245506Y-79130537D01*
X114355820Y-79189502D01*
X114475518Y-79225812D01*
X114600000Y-79238072D01*
X116800000Y-79238072D01*
X116924482Y-79225812D01*
X117044180Y-79189502D01*
X117154494Y-79130537D01*
X117251185Y-79051185D01*
X117330537Y-78954494D01*
X117389502Y-78844180D01*
X117425812Y-78724482D01*
X117438072Y-78600000D01*
X117438072Y-77300000D01*
X123661928Y-77300000D01*
X123665000Y-78014250D01*
X123823750Y-78173000D01*
X125173000Y-78173000D01*
X125173000Y-76823750D01*
X125427000Y-76823750D01*
X125427000Y-78173000D01*
X126776250Y-78173000D01*
X126935000Y-78014250D01*
X126938072Y-77300000D01*
X126925812Y-77175518D01*
X126889502Y-77055820D01*
X126830537Y-76945506D01*
X126751185Y-76848815D01*
X126654494Y-76769463D01*
X126544180Y-76710498D01*
X126424482Y-76674188D01*
X126300000Y-76661928D01*
X125585750Y-76665000D01*
X125427000Y-76823750D01*
X125173000Y-76823750D01*
X125014250Y-76665000D01*
X124300000Y-76661928D01*
X124175518Y-76674188D01*
X124055820Y-76710498D01*
X123945506Y-76769463D01*
X123848815Y-76848815D01*
X123769463Y-76945506D01*
X123710498Y-77055820D01*
X123674188Y-77175518D01*
X123661928Y-77300000D01*
X117438072Y-77300000D01*
X117438072Y-76400000D01*
X117427505Y-76292702D01*
X135386903Y-76292702D01*
X135458486Y-76536671D01*
X135713996Y-76657571D01*
X135988184Y-76726300D01*
X136270512Y-76740217D01*
X136550130Y-76698787D01*
X136816292Y-76603603D01*
X136941514Y-76536671D01*
X137013097Y-76292702D01*
X136200000Y-75479605D01*
X135386903Y-76292702D01*
X117427505Y-76292702D01*
X117425812Y-76275518D01*
X117389502Y-76155820D01*
X117330537Y-76045506D01*
X117251185Y-75948815D01*
X117154494Y-75869463D01*
X117085000Y-75832317D01*
X117085000Y-75667683D01*
X117154494Y-75630537D01*
X117251185Y-75551185D01*
X117330537Y-75454494D01*
X117367683Y-75385000D01*
X118231971Y-75385000D01*
X118300000Y-75391700D01*
X118368029Y-75385000D01*
X118368037Y-75385000D01*
X118515136Y-75370512D01*
X134759783Y-75370512D01*
X134801213Y-75650130D01*
X134896397Y-75916292D01*
X134963329Y-76041514D01*
X135207298Y-76113097D01*
X136020395Y-75300000D01*
X136379605Y-75300000D01*
X137192702Y-76113097D01*
X137436671Y-76041514D01*
X137557571Y-75786004D01*
X137626300Y-75511816D01*
X137640217Y-75229488D01*
X137598787Y-74949870D01*
X137503603Y-74683708D01*
X137436671Y-74558486D01*
X137192702Y-74486903D01*
X136379605Y-75300000D01*
X136020395Y-75300000D01*
X135207298Y-74486903D01*
X134963329Y-74558486D01*
X134842429Y-74813996D01*
X134773700Y-75088184D01*
X134759783Y-75370512D01*
X118515136Y-75370512D01*
X118571507Y-75364960D01*
X118832581Y-75285764D01*
X119073188Y-75157157D01*
X119284081Y-74984081D01*
X119327454Y-74931231D01*
X119951387Y-74307298D01*
X135386903Y-74307298D01*
X136200000Y-75120395D01*
X137013097Y-74307298D01*
X136941514Y-74063329D01*
X136686004Y-73942429D01*
X136411816Y-73873700D01*
X136129488Y-73859783D01*
X135849870Y-73901213D01*
X135583708Y-73996397D01*
X135458486Y-74063329D01*
X135386903Y-74307298D01*
X119951387Y-74307298D01*
X120823272Y-73435413D01*
X124344192Y-73435413D01*
X124439956Y-73699814D01*
X124729571Y-73840704D01*
X125041108Y-73922384D01*
X125362595Y-73941718D01*
X125681675Y-73897961D01*
X125986088Y-73792795D01*
X126160044Y-73699814D01*
X126255808Y-73435413D01*
X125300000Y-72479605D01*
X124344192Y-73435413D01*
X120823272Y-73435413D01*
X121431241Y-72827445D01*
X121484080Y-72784081D01*
X121527445Y-72731241D01*
X121527452Y-72731234D01*
X121657157Y-72573188D01*
X121769721Y-72362595D01*
X123658282Y-72362595D01*
X123702039Y-72681675D01*
X123807205Y-72986088D01*
X123900186Y-73160044D01*
X124164587Y-73255808D01*
X125120395Y-72300000D01*
X125479605Y-72300000D01*
X126435413Y-73255808D01*
X126699814Y-73160044D01*
X126840704Y-72870429D01*
X126922384Y-72558892D01*
X126941718Y-72237405D01*
X126897961Y-71918325D01*
X126792795Y-71613912D01*
X126699814Y-71439956D01*
X126435413Y-71344192D01*
X125479605Y-72300000D01*
X125120395Y-72300000D01*
X124164587Y-71344192D01*
X123900186Y-71439956D01*
X123759296Y-71729571D01*
X123677616Y-72041108D01*
X123658282Y-72362595D01*
X121769721Y-72362595D01*
X121785764Y-72332581D01*
X121864960Y-72071507D01*
X121865302Y-72068036D01*
X121885000Y-71868037D01*
X121885000Y-71868029D01*
X121891700Y-71800000D01*
X121885000Y-71731971D01*
X121885000Y-71164587D01*
X124344192Y-71164587D01*
X125300000Y-72120395D01*
X126255808Y-71164587D01*
X126160044Y-70900186D01*
X125870429Y-70759296D01*
X125558892Y-70677616D01*
X125237405Y-70658282D01*
X124918325Y-70702039D01*
X124613912Y-70807205D01*
X124439956Y-70900186D01*
X124344192Y-71164587D01*
X121885000Y-71164587D01*
X121885000Y-70173685D01*
X123373686Y-68685000D01*
X123794499Y-68685000D01*
X123848815Y-68751185D01*
X123945506Y-68830537D01*
X124055820Y-68889502D01*
X124175518Y-68925812D01*
X124300000Y-68938072D01*
X126300000Y-68938072D01*
X126424482Y-68925812D01*
X126544180Y-68889502D01*
X126654494Y-68830537D01*
X126751185Y-68751185D01*
X126805501Y-68685000D01*
X130926315Y-68685000D01*
X134942977Y-72701663D01*
X135085363Y-72914759D01*
X135285241Y-73114637D01*
X135520273Y-73271680D01*
X135781426Y-73379853D01*
X136058665Y-73435000D01*
X136341335Y-73435000D01*
X136618574Y-73379853D01*
X136879727Y-73271680D01*
X137114759Y-73114637D01*
X137236694Y-72992702D01*
X140386903Y-72992702D01*
X140458486Y-73236671D01*
X140713996Y-73357571D01*
X140988184Y-73426300D01*
X141270512Y-73440217D01*
X141550130Y-73398787D01*
X141816292Y-73303603D01*
X141941514Y-73236671D01*
X142013097Y-72992702D01*
X141200000Y-72179605D01*
X140386903Y-72992702D01*
X137236694Y-72992702D01*
X137314637Y-72914759D01*
X137471680Y-72679727D01*
X137579853Y-72418574D01*
X137635000Y-72141335D01*
X137635000Y-72070512D01*
X139759783Y-72070512D01*
X139801213Y-72350130D01*
X139896397Y-72616292D01*
X139963329Y-72741514D01*
X140207298Y-72813097D01*
X141020395Y-72000000D01*
X140207298Y-71186903D01*
X139963329Y-71258486D01*
X139842429Y-71513996D01*
X139773700Y-71788184D01*
X139759783Y-72070512D01*
X137635000Y-72070512D01*
X137635000Y-71858665D01*
X137579853Y-71581426D01*
X137471680Y-71320273D01*
X137314637Y-71085241D01*
X137114759Y-70885363D01*
X136901663Y-70742977D01*
X133458685Y-67300000D01*
X133573686Y-67185000D01*
X137701999Y-67185000D01*
X137756315Y-67251185D01*
X137853006Y-67330537D01*
X137963320Y-67389502D01*
X138083018Y-67425812D01*
X138207500Y-67438072D01*
X140112500Y-67438072D01*
X140236982Y-67425812D01*
X140356680Y-67389502D01*
X140466994Y-67330537D01*
X140563685Y-67251185D01*
X140643037Y-67154494D01*
X140687905Y-67070553D01*
X140813766Y-67173845D01*
X141089552Y-67321255D01*
X141388797Y-67412030D01*
X141700000Y-67442681D01*
X142011204Y-67412030D01*
X142310449Y-67321255D01*
X142586235Y-67173845D01*
X142827963Y-66975463D01*
X142855001Y-66942518D01*
X142855000Y-68186315D01*
X142668765Y-68372550D01*
X142615920Y-68415919D01*
X142572551Y-68468764D01*
X142572548Y-68468767D01*
X142442844Y-68626812D01*
X142314236Y-68867420D01*
X142235040Y-69128493D01*
X142208300Y-69400000D01*
X142215001Y-69468039D01*
X142215000Y-70976653D01*
X142129370Y-70891023D01*
X142013097Y-71007296D01*
X141941514Y-70763329D01*
X141686004Y-70642429D01*
X141411816Y-70573700D01*
X141129488Y-70559783D01*
X140849870Y-70601213D01*
X140583708Y-70696397D01*
X140458486Y-70763329D01*
X140386903Y-71007298D01*
X141200000Y-71820395D01*
X141214143Y-71806253D01*
X141393748Y-71985858D01*
X141379605Y-72000000D01*
X142192702Y-72813097D01*
X142380598Y-72757966D01*
X142485363Y-72914759D01*
X142685241Y-73114637D01*
X142920273Y-73271680D01*
X143181426Y-73379853D01*
X143458665Y-73435000D01*
X143741335Y-73435000D01*
X144018574Y-73379853D01*
X144279727Y-73271680D01*
X144514759Y-73114637D01*
X144636694Y-72992702D01*
X147786903Y-72992702D01*
X147858486Y-73236671D01*
X148113996Y-73357571D01*
X148388184Y-73426300D01*
X148670512Y-73440217D01*
X148950130Y-73398787D01*
X149216292Y-73303603D01*
X149341514Y-73236671D01*
X149413097Y-72992702D01*
X148600000Y-72179605D01*
X147786903Y-72992702D01*
X144636694Y-72992702D01*
X144714637Y-72914759D01*
X144871680Y-72679727D01*
X144979853Y-72418574D01*
X145035000Y-72141335D01*
X145035000Y-72070512D01*
X147159783Y-72070512D01*
X147201213Y-72350130D01*
X147296397Y-72616292D01*
X147363329Y-72741514D01*
X147607298Y-72813097D01*
X148420395Y-72000000D01*
X148779605Y-72000000D01*
X149592702Y-72813097D01*
X149836671Y-72741514D01*
X149957571Y-72486004D01*
X150026300Y-72211816D01*
X150040217Y-71929488D01*
X149998787Y-71649870D01*
X149903603Y-71383708D01*
X149836671Y-71258486D01*
X149592702Y-71186903D01*
X148779605Y-72000000D01*
X148420395Y-72000000D01*
X147607298Y-71186903D01*
X147363329Y-71258486D01*
X147242429Y-71513996D01*
X147173700Y-71788184D01*
X147159783Y-72070512D01*
X145035000Y-72070512D01*
X145035000Y-71858665D01*
X144985000Y-71607301D01*
X144985000Y-71007298D01*
X147786903Y-71007298D01*
X148600000Y-71820395D01*
X149413097Y-71007298D01*
X149341514Y-70763329D01*
X149086004Y-70642429D01*
X148811816Y-70573700D01*
X148529488Y-70559783D01*
X148249870Y-70601213D01*
X147983708Y-70696397D01*
X147858486Y-70763329D01*
X147786903Y-71007298D01*
X144985000Y-71007298D01*
X144985000Y-70235413D01*
X156044192Y-70235413D01*
X156139956Y-70499814D01*
X156429571Y-70640704D01*
X156741108Y-70722384D01*
X157062595Y-70741718D01*
X157381675Y-70697961D01*
X157686088Y-70592795D01*
X157860044Y-70499814D01*
X157955808Y-70235413D01*
X157000000Y-69279605D01*
X156044192Y-70235413D01*
X144985000Y-70235413D01*
X144985000Y-69973685D01*
X145171235Y-69787450D01*
X145224080Y-69744081D01*
X145283641Y-69671507D01*
X145349357Y-69591432D01*
X145397157Y-69533188D01*
X145525764Y-69292581D01*
X145565194Y-69162595D01*
X155358282Y-69162595D01*
X155402039Y-69481675D01*
X155507205Y-69786088D01*
X155600186Y-69960044D01*
X155864587Y-70055808D01*
X156820395Y-69100000D01*
X157179605Y-69100000D01*
X158135413Y-70055808D01*
X158399814Y-69960044D01*
X158540704Y-69670429D01*
X158622384Y-69358892D01*
X158641718Y-69037405D01*
X158597961Y-68718325D01*
X158492795Y-68413912D01*
X158399814Y-68239956D01*
X158135413Y-68144192D01*
X157179605Y-69100000D01*
X156820395Y-69100000D01*
X155864587Y-68144192D01*
X155600186Y-68239956D01*
X155459296Y-68529571D01*
X155377616Y-68841108D01*
X155358282Y-69162595D01*
X145565194Y-69162595D01*
X145604960Y-69031507D01*
X145625000Y-68828037D01*
X145625000Y-68828029D01*
X145631700Y-68760000D01*
X145625000Y-68691971D01*
X145625000Y-67964587D01*
X156044192Y-67964587D01*
X157000000Y-68920395D01*
X157955808Y-67964587D01*
X157860044Y-67700186D01*
X157570429Y-67559296D01*
X157258892Y-67477616D01*
X156937405Y-67458282D01*
X156618325Y-67502039D01*
X156313912Y-67607205D01*
X156139956Y-67700186D01*
X156044192Y-67964587D01*
X145625000Y-67964587D01*
X145625000Y-67185000D01*
X155231971Y-67185000D01*
X155300000Y-67191700D01*
X155368029Y-67185000D01*
X155368037Y-67185000D01*
X155571507Y-67164960D01*
X155832581Y-67085764D01*
X156073188Y-66957157D01*
X156284081Y-66784081D01*
X156327454Y-66731231D01*
X157320614Y-65738072D01*
X158000000Y-65738072D01*
X158124482Y-65725812D01*
X158244180Y-65689502D01*
X158354494Y-65630537D01*
X158451185Y-65551185D01*
X158505501Y-65485000D01*
X164791971Y-65485000D01*
X164860000Y-65491700D01*
X164928029Y-65485000D01*
X164928037Y-65485000D01*
X165131507Y-65464960D01*
X165392581Y-65385764D01*
X165633188Y-65257157D01*
X165844081Y-65084081D01*
X165887454Y-65031231D01*
X166223604Y-64695081D01*
X172259758Y-70731236D01*
X172303127Y-70784081D01*
X172355972Y-70827450D01*
X172355974Y-70827452D01*
X172514020Y-70957157D01*
X172754627Y-71085764D01*
X173015701Y-71164960D01*
X173219171Y-71185000D01*
X173219179Y-71185000D01*
X173287208Y-71191700D01*
X173355237Y-71185000D01*
X173772998Y-71185000D01*
X173772998Y-71328567D01*
X173488195Y-71211805D01*
X173248934Y-71284379D01*
X172926743Y-71444361D01*
X172641954Y-71664125D01*
X172405511Y-71935226D01*
X172226500Y-72247246D01*
X172111801Y-72588194D01*
X172228146Y-72873000D01*
X173773000Y-72873000D01*
X173773000Y-72853000D01*
X174027000Y-72853000D01*
X174027000Y-72873000D01*
X175571854Y-72873000D01*
X175688199Y-72588194D01*
X175573500Y-72247246D01*
X175394489Y-71935226D01*
X175158046Y-71664125D01*
X174873257Y-71444361D01*
X174551066Y-71284379D01*
X174311805Y-71211805D01*
X174027002Y-71328567D01*
X174027002Y-71185000D01*
X180522705Y-71185000D01*
X180568815Y-71241185D01*
X180665506Y-71320537D01*
X180775820Y-71379502D01*
X180895518Y-71415812D01*
X181020000Y-71428072D01*
X184980000Y-71428072D01*
X185104482Y-71415812D01*
X185224180Y-71379502D01*
X185334494Y-71320537D01*
X185431185Y-71241185D01*
X185510537Y-71144494D01*
X185569502Y-71034180D01*
X185605812Y-70914482D01*
X185618072Y-70790000D01*
X185618072Y-68810000D01*
X185605812Y-68685518D01*
X185569502Y-68565820D01*
X185510537Y-68455506D01*
X185431185Y-68358815D01*
X185334494Y-68279463D01*
X185224180Y-68220498D01*
X185104482Y-68184188D01*
X184980000Y-68171928D01*
X181020000Y-68171928D01*
X180895518Y-68184188D01*
X180775820Y-68220498D01*
X180665506Y-68279463D01*
X180568815Y-68358815D01*
X180522705Y-68415000D01*
X173860894Y-68415000D01*
X169083965Y-63638072D01*
X170300000Y-63638072D01*
X170424482Y-63625812D01*
X170544180Y-63589502D01*
X170654494Y-63530537D01*
X170709981Y-63485000D01*
X172031971Y-63485000D01*
X172100000Y-63491700D01*
X172168029Y-63485000D01*
X172168037Y-63485000D01*
X172371507Y-63464960D01*
X172632581Y-63385764D01*
X172873188Y-63257157D01*
X173084081Y-63084081D01*
X173127454Y-63031231D01*
X174023686Y-62135000D01*
X174080732Y-62135000D01*
X174435250Y-62064482D01*
X174769199Y-61926156D01*
X175069744Y-61725338D01*
X175325338Y-61469744D01*
X175526156Y-61169199D01*
X175664482Y-60835250D01*
X175735000Y-60480732D01*
X175735000Y-60119268D01*
X175664482Y-59764750D01*
X175526156Y-59430801D01*
X175389980Y-59227000D01*
X189273000Y-59227000D01*
X189273000Y-90840000D01*
X88660000Y-90840000D01*
X88660000Y-76478865D01*
X92429782Y-76478865D01*
X92460095Y-76604528D01*
X92588304Y-76897205D01*
X92771148Y-77159246D01*
X93001601Y-77380581D01*
X93270806Y-77552704D01*
X93568418Y-77669000D01*
X93883000Y-77725000D01*
X94873000Y-77725000D01*
X94873000Y-76227000D01*
X95127000Y-76227000D01*
X95127000Y-77725000D01*
X96117000Y-77725000D01*
X96431582Y-77669000D01*
X96729194Y-77552704D01*
X96998399Y-77380581D01*
X97228852Y-77159246D01*
X97411696Y-76897205D01*
X97539905Y-76604528D01*
X97570218Y-76478865D01*
X97450740Y-76227000D01*
X95127000Y-76227000D01*
X94873000Y-76227000D01*
X92549260Y-76227000D01*
X92429782Y-76478865D01*
X88660000Y-76478865D01*
X88660000Y-75721135D01*
X92429782Y-75721135D01*
X92549260Y-75973000D01*
X94873000Y-75973000D01*
X94873000Y-74475000D01*
X95127000Y-74475000D01*
X95127000Y-75973000D01*
X97450740Y-75973000D01*
X97570218Y-75721135D01*
X97539905Y-75595472D01*
X97411696Y-75302795D01*
X97228852Y-75040754D01*
X96998399Y-74819419D01*
X96729194Y-74647296D01*
X96431582Y-74531000D01*
X96117000Y-74475000D01*
X95127000Y-74475000D01*
X94873000Y-74475000D01*
X93883000Y-74475000D01*
X93568418Y-74531000D01*
X93270806Y-74647296D01*
X93001601Y-74819419D01*
X92771148Y-75040754D01*
X92588304Y-75302795D01*
X92460095Y-75595472D01*
X92429782Y-75721135D01*
X88660000Y-75721135D01*
X88660000Y-71100000D01*
X92377138Y-71100000D01*
X92408513Y-71418556D01*
X92501432Y-71724869D01*
X92652325Y-72007170D01*
X92855392Y-72254608D01*
X93102830Y-72457675D01*
X93385131Y-72608568D01*
X93691444Y-72701487D01*
X93930176Y-72725000D01*
X94041408Y-72725000D01*
X94275152Y-72849939D01*
X94630476Y-72957725D01*
X94907403Y-72985000D01*
X103655000Y-72985000D01*
X103655000Y-74092596D01*
X103682275Y-74369523D01*
X103790061Y-74724847D01*
X103965097Y-75052317D01*
X104200655Y-75339345D01*
X104487683Y-75574903D01*
X104815152Y-75749939D01*
X104815354Y-75750000D01*
X104815153Y-75750061D01*
X104487684Y-75925097D01*
X104200656Y-76160655D01*
X103965098Y-76447683D01*
X103790062Y-76775152D01*
X103682276Y-77130476D01*
X103655001Y-77407403D01*
X103655001Y-79215000D01*
X94907403Y-79215000D01*
X94630476Y-79242275D01*
X94275152Y-79350061D01*
X94047155Y-79471928D01*
X93020000Y-79471928D01*
X92895518Y-79484188D01*
X92775820Y-79520498D01*
X92665506Y-79579463D01*
X92568815Y-79658815D01*
X92489463Y-79755506D01*
X92430498Y-79865820D01*
X92394188Y-79985518D01*
X92381928Y-80110000D01*
X92381928Y-82090000D01*
X92394188Y-82214482D01*
X92430498Y-82334180D01*
X92489463Y-82444494D01*
X92568815Y-82541185D01*
X92665506Y-82620537D01*
X92775820Y-82679502D01*
X92895518Y-82715812D01*
X93020000Y-82728072D01*
X94047155Y-82728072D01*
X94275152Y-82849939D01*
X94630476Y-82957725D01*
X94907403Y-82985000D01*
X105532597Y-82985000D01*
X105809524Y-82957725D01*
X106164848Y-82849939D01*
X106374136Y-82738072D01*
X106640000Y-82738072D01*
X106764482Y-82725812D01*
X106884180Y-82689502D01*
X106994494Y-82630537D01*
X107091185Y-82551185D01*
X107170537Y-82454494D01*
X107229502Y-82344180D01*
X107265812Y-82224482D01*
X107278072Y-82100000D01*
X107278072Y-81747050D01*
X107289939Y-81724848D01*
X107397725Y-81369524D01*
X107425000Y-81092597D01*
X107425000Y-77407403D01*
X107397725Y-77130476D01*
X107289939Y-76775152D01*
X107114903Y-76447683D01*
X106879345Y-76160655D01*
X106592317Y-75925097D01*
X106264848Y-75750061D01*
X106264646Y-75750000D01*
X106264847Y-75749939D01*
X106592317Y-75574903D01*
X106879345Y-75339345D01*
X107114903Y-75052317D01*
X107289939Y-74724848D01*
X107397725Y-74369524D01*
X107425000Y-74092597D01*
X107425000Y-73804366D01*
X109408300Y-73804366D01*
X109415001Y-73872405D01*
X109415000Y-79031971D01*
X109408300Y-79100000D01*
X109415000Y-79168029D01*
X109415000Y-79168036D01*
X109425455Y-79274188D01*
X109435040Y-79371507D01*
X109487420Y-79544180D01*
X109514236Y-79632580D01*
X109642843Y-79873187D01*
X109664848Y-79900000D01*
X109759981Y-80015919D01*
X109815919Y-80084080D01*
X109868765Y-80127450D01*
X111672550Y-81931236D01*
X111715919Y-81984081D01*
X111768764Y-82027450D01*
X111768766Y-82027452D01*
X111837769Y-82084081D01*
X111926812Y-82157157D01*
X112167419Y-82285764D01*
X112428493Y-82364960D01*
X112631963Y-82385000D01*
X112631971Y-82385000D01*
X112700000Y-82391700D01*
X112768029Y-82385000D01*
X114649881Y-82385000D01*
X114878169Y-82537537D01*
X115193919Y-82668325D01*
X115529117Y-82735000D01*
X115870883Y-82735000D01*
X116206081Y-82668325D01*
X116521831Y-82537537D01*
X116750119Y-82385000D01*
X122426315Y-82385000D01*
X123705387Y-83664073D01*
X123727832Y-83776912D01*
X123851082Y-84074463D01*
X124030013Y-84342252D01*
X124257748Y-84569987D01*
X124525537Y-84748918D01*
X124823088Y-84872168D01*
X125138967Y-84935000D01*
X125461033Y-84935000D01*
X125776912Y-84872168D01*
X126074463Y-84748918D01*
X126170123Y-84685000D01*
X132126315Y-84685000D01*
X135672550Y-88231236D01*
X135715919Y-88284081D01*
X135768764Y-88327450D01*
X135768766Y-88327452D01*
X135801717Y-88354494D01*
X135926812Y-88457157D01*
X136167419Y-88585764D01*
X136428493Y-88664960D01*
X136631963Y-88685000D01*
X136631972Y-88685000D01*
X136699999Y-88691700D01*
X136768026Y-88685000D01*
X140494473Y-88685000D01*
X140562502Y-88691700D01*
X140630531Y-88685000D01*
X140630539Y-88685000D01*
X140834009Y-88664960D01*
X141095083Y-88585764D01*
X141335690Y-88457157D01*
X141546583Y-88284081D01*
X141589956Y-88231231D01*
X142654634Y-87166553D01*
X165219009Y-87166553D01*
X165261603Y-87465907D01*
X165361778Y-87751199D01*
X165441739Y-87900792D01*
X165695920Y-87984475D01*
X166580395Y-87100000D01*
X165695920Y-86215525D01*
X165441739Y-86299208D01*
X165310842Y-86571775D01*
X165235635Y-86864642D01*
X165219009Y-87166553D01*
X142654634Y-87166553D01*
X142771241Y-87049947D01*
X142824080Y-87006583D01*
X142867445Y-86953743D01*
X142867452Y-86953736D01*
X142997156Y-86795691D01*
X142997158Y-86795689D01*
X143125764Y-86555083D01*
X143166360Y-86421255D01*
X143204960Y-86294010D01*
X143216960Y-86172168D01*
X143225000Y-86090539D01*
X143225000Y-86090531D01*
X143229222Y-86047663D01*
X143252037Y-86075463D01*
X143493766Y-86273845D01*
X143769552Y-86421255D01*
X144068797Y-86512030D01*
X144380000Y-86542681D01*
X144691204Y-86512030D01*
X144990449Y-86421255D01*
X145245365Y-86285000D01*
X156231971Y-86285000D01*
X156300000Y-86291700D01*
X156368029Y-86285000D01*
X156368037Y-86285000D01*
X156571507Y-86264960D01*
X156670272Y-86235000D01*
X156761033Y-86235000D01*
X157076912Y-86172168D01*
X157374463Y-86048918D01*
X157393915Y-86035920D01*
X165875525Y-86035920D01*
X166760000Y-86920395D01*
X166774143Y-86906253D01*
X166953748Y-87085858D01*
X166939605Y-87100000D01*
X166953748Y-87114143D01*
X166774143Y-87293748D01*
X166760000Y-87279605D01*
X165875525Y-88164080D01*
X165959208Y-88418261D01*
X166231775Y-88549158D01*
X166524642Y-88624365D01*
X166826553Y-88640991D01*
X167125907Y-88598397D01*
X167411199Y-88498222D01*
X167560792Y-88418261D01*
X167644474Y-88164082D01*
X167760422Y-88280030D01*
X167807187Y-88233265D01*
X167810498Y-88244180D01*
X167869463Y-88354494D01*
X167948815Y-88451185D01*
X168045506Y-88530537D01*
X168155820Y-88589502D01*
X168275518Y-88625812D01*
X168400000Y-88638072D01*
X168879387Y-88638072D01*
X170072550Y-89831236D01*
X170115919Y-89884081D01*
X170168764Y-89927450D01*
X170168766Y-89927452D01*
X170281099Y-90019641D01*
X170326812Y-90057157D01*
X170567419Y-90185764D01*
X170828493Y-90264960D01*
X171031963Y-90285000D01*
X171031972Y-90285000D01*
X171099999Y-90291700D01*
X171168026Y-90285000D01*
X172689918Y-90285000D01*
X172730256Y-90325338D01*
X173030801Y-90526156D01*
X173364750Y-90664482D01*
X173719268Y-90735000D01*
X174080732Y-90735000D01*
X174435250Y-90664482D01*
X174769199Y-90526156D01*
X175069744Y-90325338D01*
X175325338Y-90069744D01*
X175526156Y-89769199D01*
X175664482Y-89435250D01*
X175735000Y-89080732D01*
X175735000Y-88719268D01*
X175664482Y-88364750D01*
X175526156Y-88030801D01*
X175325338Y-87730256D01*
X175069744Y-87474662D01*
X174769199Y-87273844D01*
X174435250Y-87135518D01*
X174080732Y-87065000D01*
X173719268Y-87065000D01*
X173364750Y-87135518D01*
X173030801Y-87273844D01*
X172730256Y-87474662D01*
X172689918Y-87515000D01*
X171673686Y-87515000D01*
X170838072Y-86679387D01*
X170838072Y-86200000D01*
X170825812Y-86075518D01*
X170789502Y-85955820D01*
X170730537Y-85845506D01*
X170651185Y-85748815D01*
X170554494Y-85669463D01*
X170444180Y-85610498D01*
X170324482Y-85574188D01*
X170200000Y-85561928D01*
X168400000Y-85561928D01*
X168275518Y-85574188D01*
X168155820Y-85610498D01*
X168045506Y-85669463D01*
X167948815Y-85748815D01*
X167869463Y-85845506D01*
X167810498Y-85955820D01*
X167807187Y-85966735D01*
X167760422Y-85919970D01*
X167644474Y-86035918D01*
X167560792Y-85781739D01*
X167288225Y-85650842D01*
X166995358Y-85575635D01*
X166693447Y-85559009D01*
X166394093Y-85601603D01*
X166108801Y-85701778D01*
X165959208Y-85781739D01*
X165875525Y-86035920D01*
X157393915Y-86035920D01*
X157642252Y-85869987D01*
X157869987Y-85642252D01*
X158048918Y-85374463D01*
X158172168Y-85076912D01*
X158194613Y-84964072D01*
X165573686Y-77585000D01*
X172689918Y-77585000D01*
X172730256Y-77625338D01*
X173030801Y-77826156D01*
X173364750Y-77964482D01*
X173719268Y-78035000D01*
X173776315Y-78035000D01*
X176472550Y-80731236D01*
X176515919Y-80784081D01*
X176568764Y-80827450D01*
X176568766Y-80827452D01*
X176723567Y-80954494D01*
X176726812Y-80957157D01*
X176967419Y-81085764D01*
X177228493Y-81164960D01*
X177431963Y-81185000D01*
X177431971Y-81185000D01*
X177500000Y-81191700D01*
X177568029Y-81185000D01*
X181153951Y-81185000D01*
X181385131Y-81308568D01*
X181691444Y-81401487D01*
X181930176Y-81425000D01*
X184069824Y-81425000D01*
X184308556Y-81401487D01*
X184614869Y-81308568D01*
X184897170Y-81157675D01*
X185144608Y-80954608D01*
X185347675Y-80707170D01*
X185498568Y-80424869D01*
X185591487Y-80118556D01*
X185622862Y-79800000D01*
X185591487Y-79481444D01*
X185498568Y-79175131D01*
X185347675Y-78892830D01*
X185144608Y-78645392D01*
X184897170Y-78442325D01*
X184614869Y-78291432D01*
X184308556Y-78198513D01*
X184069824Y-78175000D01*
X181930176Y-78175000D01*
X181691444Y-78198513D01*
X181385131Y-78291432D01*
X181153951Y-78415000D01*
X178073686Y-78415000D01*
X175735000Y-76076315D01*
X175735000Y-76019268D01*
X175664482Y-75664750D01*
X175526156Y-75330801D01*
X175424636Y-75178865D01*
X180429782Y-75178865D01*
X180460095Y-75304528D01*
X180588304Y-75597205D01*
X180771148Y-75859246D01*
X181001601Y-76080581D01*
X181270806Y-76252704D01*
X181568418Y-76369000D01*
X181883000Y-76425000D01*
X182873000Y-76425000D01*
X182873000Y-74927000D01*
X183127000Y-74927000D01*
X183127000Y-76425000D01*
X184117000Y-76425000D01*
X184431582Y-76369000D01*
X184729194Y-76252704D01*
X184998399Y-76080581D01*
X185228852Y-75859246D01*
X185411696Y-75597205D01*
X185539905Y-75304528D01*
X185570218Y-75178865D01*
X185450740Y-74927000D01*
X183127000Y-74927000D01*
X182873000Y-74927000D01*
X180549260Y-74927000D01*
X180429782Y-75178865D01*
X175424636Y-75178865D01*
X175325338Y-75030256D01*
X175069744Y-74774662D01*
X174797931Y-74593042D01*
X174873257Y-74555639D01*
X175047558Y-74421135D01*
X180429782Y-74421135D01*
X180549260Y-74673000D01*
X182873000Y-74673000D01*
X182873000Y-73175000D01*
X183127000Y-73175000D01*
X183127000Y-74673000D01*
X185450740Y-74673000D01*
X185570218Y-74421135D01*
X185539905Y-74295472D01*
X185411696Y-74002795D01*
X185228852Y-73740754D01*
X184998399Y-73519419D01*
X184729194Y-73347296D01*
X184431582Y-73231000D01*
X184117000Y-73175000D01*
X183127000Y-73175000D01*
X182873000Y-73175000D01*
X181883000Y-73175000D01*
X181568418Y-73231000D01*
X181270806Y-73347296D01*
X181001601Y-73519419D01*
X180771148Y-73740754D01*
X180588304Y-74002795D01*
X180460095Y-74295472D01*
X180429782Y-74421135D01*
X175047558Y-74421135D01*
X175158046Y-74335875D01*
X175394489Y-74064774D01*
X175573500Y-73752754D01*
X175688199Y-73411806D01*
X175571854Y-73127000D01*
X174027000Y-73127000D01*
X174027000Y-73147000D01*
X173773000Y-73147000D01*
X173773000Y-73127000D01*
X172228146Y-73127000D01*
X172111801Y-73411806D01*
X172226500Y-73752754D01*
X172405511Y-74064774D01*
X172641954Y-74335875D01*
X172926743Y-74555639D01*
X173002069Y-74593042D01*
X172730256Y-74774662D01*
X172689918Y-74815000D01*
X165068029Y-74815000D01*
X165000000Y-74808300D01*
X164931971Y-74815000D01*
X164931963Y-74815000D01*
X164761207Y-74831818D01*
X164728492Y-74835040D01*
X164575579Y-74881426D01*
X164467419Y-74914236D01*
X164226812Y-75042843D01*
X164149858Y-75105998D01*
X164068766Y-75172548D01*
X164068764Y-75172550D01*
X164015919Y-75215919D01*
X163972550Y-75268764D01*
X156235928Y-83005387D01*
X156123088Y-83027832D01*
X155825537Y-83151082D01*
X155557748Y-83330013D01*
X155372761Y-83515000D01*
X145765000Y-83515000D01*
X145765000Y-80600000D01*
X154961928Y-80600000D01*
X154974188Y-80724482D01*
X155010498Y-80844180D01*
X155069463Y-80954494D01*
X155148815Y-81051185D01*
X155245506Y-81130537D01*
X155355820Y-81189502D01*
X155475518Y-81225812D01*
X155600000Y-81238072D01*
X156314250Y-81235000D01*
X156473000Y-81076250D01*
X156473000Y-79727000D01*
X156727000Y-79727000D01*
X156727000Y-81076250D01*
X156885750Y-81235000D01*
X157600000Y-81238072D01*
X157724482Y-81225812D01*
X157844180Y-81189502D01*
X157954494Y-81130537D01*
X158051185Y-81051185D01*
X158130537Y-80954494D01*
X158189502Y-80844180D01*
X158225812Y-80724482D01*
X158238072Y-80600000D01*
X158235000Y-79885750D01*
X158076250Y-79727000D01*
X156727000Y-79727000D01*
X156473000Y-79727000D01*
X155123750Y-79727000D01*
X154965000Y-79885750D01*
X154961928Y-80600000D01*
X145765000Y-80600000D01*
X145765000Y-80093685D01*
X147258685Y-78600000D01*
X154961928Y-78600000D01*
X154965000Y-79314250D01*
X155123750Y-79473000D01*
X156473000Y-79473000D01*
X156473000Y-78123750D01*
X156727000Y-78123750D01*
X156727000Y-79473000D01*
X158076250Y-79473000D01*
X158235000Y-79314250D01*
X158238072Y-78600000D01*
X158225812Y-78475518D01*
X158189502Y-78355820D01*
X158130537Y-78245506D01*
X158051185Y-78148815D01*
X157954494Y-78069463D01*
X157844180Y-78010498D01*
X157724482Y-77974188D01*
X157600000Y-77961928D01*
X156885750Y-77965000D01*
X156727000Y-78123750D01*
X156473000Y-78123750D01*
X156314250Y-77965000D01*
X155600000Y-77961928D01*
X155475518Y-77974188D01*
X155355820Y-78010498D01*
X155245506Y-78069463D01*
X155148815Y-78148815D01*
X155069463Y-78245506D01*
X155010498Y-78355820D01*
X154974188Y-78475518D01*
X154961928Y-78600000D01*
X147258685Y-78600000D01*
X149301663Y-76557023D01*
X149514759Y-76414637D01*
X149714637Y-76214759D01*
X149871680Y-75979727D01*
X149979853Y-75718574D01*
X150035000Y-75441335D01*
X150035000Y-75158665D01*
X149979853Y-74881426D01*
X149871680Y-74620273D01*
X149714637Y-74385241D01*
X149514759Y-74185363D01*
X149279727Y-74028320D01*
X149018574Y-73920147D01*
X148741335Y-73865000D01*
X148458665Y-73865000D01*
X148181426Y-73920147D01*
X147920273Y-74028320D01*
X147685241Y-74185363D01*
X147485363Y-74385241D01*
X147342977Y-74598337D01*
X143448764Y-78492551D01*
X143395920Y-78535919D01*
X143352551Y-78588764D01*
X143352548Y-78588767D01*
X143225000Y-78744185D01*
X143225000Y-76685396D01*
X143388184Y-76726300D01*
X143670512Y-76740217D01*
X143950130Y-76698787D01*
X144216292Y-76603603D01*
X144341514Y-76536671D01*
X144413097Y-76292702D01*
X143600000Y-75479605D01*
X143585858Y-75493748D01*
X143406253Y-75314143D01*
X143420395Y-75300000D01*
X143779605Y-75300000D01*
X144592702Y-76113097D01*
X144836671Y-76041514D01*
X144957571Y-75786004D01*
X145026300Y-75511816D01*
X145040217Y-75229488D01*
X144998787Y-74949870D01*
X144903603Y-74683708D01*
X144836671Y-74558486D01*
X144592702Y-74486903D01*
X143779605Y-75300000D01*
X143420395Y-75300000D01*
X142607298Y-74486903D01*
X142419402Y-74542034D01*
X142314637Y-74385241D01*
X142236694Y-74307298D01*
X142786903Y-74307298D01*
X143600000Y-75120395D01*
X144413097Y-74307298D01*
X144341514Y-74063329D01*
X144086004Y-73942429D01*
X143811816Y-73873700D01*
X143529488Y-73859783D01*
X143249870Y-73901213D01*
X142983708Y-73996397D01*
X142858486Y-74063329D01*
X142786903Y-74307298D01*
X142236694Y-74307298D01*
X142114759Y-74185363D01*
X141879727Y-74028320D01*
X141618574Y-73920147D01*
X141341335Y-73865000D01*
X141058665Y-73865000D01*
X140781426Y-73920147D01*
X140520273Y-74028320D01*
X140285241Y-74185363D01*
X140085363Y-74385241D01*
X139928320Y-74620273D01*
X139820147Y-74881426D01*
X139765000Y-75158665D01*
X139765000Y-75441335D01*
X139820147Y-75718574D01*
X139928320Y-75979727D01*
X140085363Y-76214759D01*
X140285241Y-76414637D01*
X140455001Y-76528067D01*
X140455000Y-83297855D01*
X140376982Y-83274188D01*
X140252500Y-83261928D01*
X139585750Y-83265000D01*
X139427000Y-83423750D01*
X139427000Y-84773000D01*
X139447000Y-84773000D01*
X139447000Y-85027000D01*
X139427000Y-85027000D01*
X139427000Y-85047000D01*
X139173000Y-85047000D01*
X139173000Y-85027000D01*
X137871250Y-85027000D01*
X137712500Y-85185750D01*
X137709428Y-85900000D01*
X137710905Y-85915000D01*
X137273686Y-85915000D01*
X135258686Y-83900000D01*
X137709428Y-83900000D01*
X137712500Y-84614250D01*
X137871250Y-84773000D01*
X139173000Y-84773000D01*
X139173000Y-83423750D01*
X139014250Y-83265000D01*
X138347500Y-83261928D01*
X138223018Y-83274188D01*
X138103320Y-83310498D01*
X137993006Y-83369463D01*
X137896315Y-83448815D01*
X137816963Y-83545506D01*
X137757998Y-83655820D01*
X137721688Y-83775518D01*
X137709428Y-83900000D01*
X135258686Y-83900000D01*
X133727454Y-82368769D01*
X133684081Y-82315919D01*
X133473188Y-82142843D01*
X133232581Y-82014236D01*
X132971507Y-81935040D01*
X132768037Y-81915000D01*
X132768029Y-81915000D01*
X132700000Y-81908300D01*
X132631971Y-81915000D01*
X126170123Y-81915000D01*
X126074463Y-81851082D01*
X125776912Y-81727832D01*
X125664073Y-81705387D01*
X124027454Y-80068769D01*
X123984081Y-80015919D01*
X123773188Y-79842843D01*
X123532581Y-79714236D01*
X123271507Y-79635040D01*
X123068037Y-79615000D01*
X123068029Y-79615000D01*
X123000000Y-79608300D01*
X122931971Y-79615000D01*
X116750119Y-79615000D01*
X116521831Y-79462463D01*
X116206081Y-79331675D01*
X116046840Y-79300000D01*
X123661928Y-79300000D01*
X123674188Y-79424482D01*
X123710498Y-79544180D01*
X123769463Y-79654494D01*
X123848815Y-79751185D01*
X123945506Y-79830537D01*
X124055820Y-79889502D01*
X124175518Y-79925812D01*
X124300000Y-79938072D01*
X125014250Y-79935000D01*
X125173000Y-79776250D01*
X125173000Y-78427000D01*
X125427000Y-78427000D01*
X125427000Y-79776250D01*
X125585750Y-79935000D01*
X126300000Y-79938072D01*
X126424482Y-79925812D01*
X126544180Y-79889502D01*
X126654494Y-79830537D01*
X126751185Y-79751185D01*
X126830537Y-79654494D01*
X126889502Y-79544180D01*
X126925812Y-79424482D01*
X126938072Y-79300000D01*
X126935000Y-78585750D01*
X126776250Y-78427000D01*
X125427000Y-78427000D01*
X125173000Y-78427000D01*
X123823750Y-78427000D01*
X123665000Y-78585750D01*
X123661928Y-79300000D01*
X116046840Y-79300000D01*
X115870883Y-79265000D01*
X115529117Y-79265000D01*
X115193919Y-79331675D01*
X114878169Y-79462463D01*
X114649881Y-79615000D01*
X113273686Y-79615000D01*
X112185000Y-78526315D01*
X112185000Y-74378051D01*
X114650746Y-71912305D01*
X114838169Y-72037537D01*
X115153919Y-72168325D01*
X115489117Y-72235000D01*
X115830883Y-72235000D01*
X116166081Y-72168325D01*
X116481831Y-72037537D01*
X116765998Y-71847663D01*
X117007663Y-71605998D01*
X117197537Y-71321831D01*
X117328325Y-71006081D01*
X117395000Y-70670883D01*
X117395000Y-70329117D01*
X117328325Y-69993919D01*
X117197537Y-69678169D01*
X117007663Y-69394002D01*
X116765998Y-69152337D01*
X116481831Y-68962463D01*
X116166081Y-68831675D01*
X115830883Y-68765000D01*
X115489117Y-68765000D01*
X115153919Y-68831675D01*
X114838169Y-68962463D01*
X114609881Y-69115000D01*
X114172392Y-69115000D01*
X114104365Y-69108300D01*
X114036338Y-69115000D01*
X114036329Y-69115000D01*
X113832859Y-69135040D01*
X113571785Y-69214236D01*
X113331178Y-69342843D01*
X113331176Y-69342844D01*
X113331177Y-69342844D01*
X113173132Y-69472548D01*
X113173130Y-69472550D01*
X113120285Y-69515919D01*
X113076916Y-69568764D01*
X109868764Y-72776917D01*
X109815920Y-72820285D01*
X109772551Y-72873130D01*
X109772548Y-72873133D01*
X109642844Y-73031178D01*
X109514236Y-73271786D01*
X109435040Y-73532859D01*
X109408300Y-73804366D01*
X107425000Y-73804366D01*
X107425000Y-70447403D01*
X107397725Y-70170476D01*
X107289939Y-69815152D01*
X107238072Y-69718116D01*
X107238072Y-69400000D01*
X107225812Y-69275518D01*
X107189502Y-69155820D01*
X107130537Y-69045506D01*
X107051185Y-68948815D01*
X106954494Y-68869463D01*
X106844180Y-68810498D01*
X106724482Y-68774188D01*
X106600000Y-68761928D01*
X106172106Y-68761928D01*
X105909524Y-68682275D01*
X105540000Y-68645880D01*
X105170477Y-68682275D01*
X104907895Y-68761928D01*
X104400000Y-68761928D01*
X104275518Y-68774188D01*
X104155820Y-68810498D01*
X104045506Y-68869463D01*
X103948815Y-68948815D01*
X103869463Y-69045506D01*
X103810498Y-69155820D01*
X103792546Y-69215000D01*
X94907403Y-69215000D01*
X94630476Y-69242275D01*
X94275152Y-69350061D01*
X94041408Y-69475000D01*
X93930176Y-69475000D01*
X93691444Y-69498513D01*
X93385131Y-69591432D01*
X93102830Y-69742325D01*
X92855392Y-69945392D01*
X92652325Y-70192830D01*
X92501432Y-70475131D01*
X92408513Y-70781444D01*
X92377138Y-71100000D01*
X88660000Y-71100000D01*
X88660000Y-59227000D01*
X172410020Y-59227000D01*
X172273844Y-59430801D01*
G37*
X172273844Y-59430801D02*
X172135518Y-59764750D01*
X172065000Y-60119268D01*
X172065000Y-60176314D01*
X171526315Y-60715000D01*
X170709981Y-60715000D01*
X170654494Y-60669463D01*
X170544180Y-60610498D01*
X170424482Y-60574188D01*
X170300000Y-60561928D01*
X168500000Y-60561928D01*
X168375518Y-60574188D01*
X168255820Y-60610498D01*
X168145506Y-60669463D01*
X168048815Y-60748815D01*
X167969463Y-60845506D01*
X167910498Y-60955820D01*
X167904944Y-60974127D01*
X167838505Y-60907688D01*
X167587095Y-60739701D01*
X167307743Y-60623989D01*
X167011184Y-60565000D01*
X166708816Y-60565000D01*
X166412257Y-60623989D01*
X166132905Y-60739701D01*
X165881495Y-60907688D01*
X165667688Y-61121495D01*
X165499701Y-61372905D01*
X165408690Y-61592625D01*
X164286315Y-62715000D01*
X158505501Y-62715000D01*
X158451185Y-62648815D01*
X158354494Y-62569463D01*
X158244180Y-62510498D01*
X158124482Y-62474188D01*
X158000000Y-62461928D01*
X156000000Y-62461928D01*
X155875518Y-62474188D01*
X155755820Y-62510498D01*
X155645506Y-62569463D01*
X155548815Y-62648815D01*
X155469463Y-62745506D01*
X155410498Y-62855820D01*
X155374188Y-62975518D01*
X155361928Y-63100000D01*
X155361928Y-63779386D01*
X154726315Y-64415000D01*
X145105364Y-64415000D01*
X144850448Y-64278745D01*
X144551203Y-64187970D01*
X144240000Y-64157319D01*
X143928796Y-64187970D01*
X143629551Y-64278745D01*
X143353765Y-64426155D01*
X143112037Y-64624537D01*
X142970000Y-64797609D01*
X142827963Y-64624537D01*
X142586234Y-64426155D01*
X142310448Y-64278745D01*
X142011203Y-64187970D01*
X141700000Y-64157319D01*
X141388796Y-64187970D01*
X141089551Y-64278745D01*
X140813765Y-64426155D01*
X140687905Y-64529446D01*
X140643037Y-64445506D01*
X140563685Y-64348815D01*
X140466994Y-64269463D01*
X140356680Y-64210498D01*
X140236982Y-64174188D01*
X140112500Y-64161928D01*
X138207500Y-64161928D01*
X138083018Y-64174188D01*
X137963320Y-64210498D01*
X137853006Y-64269463D01*
X137756315Y-64348815D01*
X137701999Y-64415000D01*
X133068026Y-64415000D01*
X132999999Y-64408300D01*
X132931972Y-64415000D01*
X132931963Y-64415000D01*
X132728493Y-64435040D01*
X132467419Y-64514236D01*
X132226812Y-64642843D01*
X132226810Y-64642844D01*
X132226811Y-64642844D01*
X132068766Y-64772548D01*
X132068764Y-64772550D01*
X132015919Y-64815919D01*
X131972550Y-64868764D01*
X130926315Y-65915000D01*
X126805501Y-65915000D01*
X126751185Y-65848815D01*
X126654494Y-65769463D01*
X126544180Y-65710498D01*
X126424482Y-65674188D01*
X126300000Y-65661928D01*
X124300000Y-65661928D01*
X124175518Y-65674188D01*
X124055820Y-65710498D01*
X123945506Y-65769463D01*
X123848815Y-65848815D01*
X123794499Y-65915000D01*
X122868026Y-65915000D01*
X122799999Y-65908300D01*
X122731972Y-65915000D01*
X122731963Y-65915000D01*
X122528493Y-65935040D01*
X122267419Y-66014236D01*
X122026812Y-66142843D01*
X121986998Y-66175518D01*
X121868766Y-66272548D01*
X121868764Y-66272550D01*
X121815919Y-66315919D01*
X121772550Y-66368764D01*
X119568764Y-68572551D01*
X119515920Y-68615919D01*
X119472551Y-68668764D01*
X119472548Y-68668767D01*
X119342844Y-68826812D01*
X119214236Y-69067420D01*
X119135040Y-69328493D01*
X119108300Y-69600000D01*
X119115001Y-69668039D01*
X119115000Y-71226314D01*
X117726315Y-72615000D01*
X117367683Y-72615000D01*
X117330537Y-72545506D01*
X117251185Y-72448815D01*
X117154494Y-72369463D01*
X117044180Y-72310498D01*
X116924482Y-72274188D01*
X116800000Y-72261928D01*
X114600000Y-72261928D01*
X114475518Y-72274188D01*
X114355820Y-72310498D01*
X114245506Y-72369463D01*
X114148815Y-72448815D01*
X114069463Y-72545506D01*
X114010498Y-72655820D01*
X113974188Y-72775518D01*
X113961928Y-72900000D01*
X113961928Y-75100000D01*
X113974188Y-75224482D01*
X114010498Y-75344180D01*
X114069463Y-75454494D01*
X114148815Y-75551185D01*
X114245506Y-75630537D01*
X114315001Y-75667683D01*
X114315000Y-75832317D01*
X114245506Y-75869463D01*
X114148815Y-75948815D01*
X114069463Y-76045506D01*
X114010498Y-76155820D01*
X113974188Y-76275518D01*
X113961928Y-76400000D01*
X113961928Y-78600000D01*
X113974188Y-78724482D01*
X114010498Y-78844180D01*
X114069463Y-78954494D01*
X114148815Y-79051185D01*
X114245506Y-79130537D01*
X114355820Y-79189502D01*
X114475518Y-79225812D01*
X114600000Y-79238072D01*
X116800000Y-79238072D01*
X116924482Y-79225812D01*
X117044180Y-79189502D01*
X117154494Y-79130537D01*
X117251185Y-79051185D01*
X117330537Y-78954494D01*
X117389502Y-78844180D01*
X117425812Y-78724482D01*
X117438072Y-78600000D01*
X117438072Y-77300000D01*
X123661928Y-77300000D01*
X123665000Y-78014250D01*
X123823750Y-78173000D01*
X125173000Y-78173000D01*
X125173000Y-76823750D01*
X125427000Y-76823750D01*
X125427000Y-78173000D01*
X126776250Y-78173000D01*
X126935000Y-78014250D01*
X126938072Y-77300000D01*
X126925812Y-77175518D01*
X126889502Y-77055820D01*
X126830537Y-76945506D01*
X126751185Y-76848815D01*
X126654494Y-76769463D01*
X126544180Y-76710498D01*
X126424482Y-76674188D01*
X126300000Y-76661928D01*
X125585750Y-76665000D01*
X125427000Y-76823750D01*
X125173000Y-76823750D01*
X125014250Y-76665000D01*
X124300000Y-76661928D01*
X124175518Y-76674188D01*
X124055820Y-76710498D01*
X123945506Y-76769463D01*
X123848815Y-76848815D01*
X123769463Y-76945506D01*
X123710498Y-77055820D01*
X123674188Y-77175518D01*
X123661928Y-77300000D01*
X117438072Y-77300000D01*
X117438072Y-76400000D01*
X117427505Y-76292702D01*
X135386903Y-76292702D01*
X135458486Y-76536671D01*
X135713996Y-76657571D01*
X135988184Y-76726300D01*
X136270512Y-76740217D01*
X136550130Y-76698787D01*
X136816292Y-76603603D01*
X136941514Y-76536671D01*
X137013097Y-76292702D01*
X136200000Y-75479605D01*
X135386903Y-76292702D01*
X117427505Y-76292702D01*
X117425812Y-76275518D01*
X117389502Y-76155820D01*
X117330537Y-76045506D01*
X117251185Y-75948815D01*
X117154494Y-75869463D01*
X117085000Y-75832317D01*
X117085000Y-75667683D01*
X117154494Y-75630537D01*
X117251185Y-75551185D01*
X117330537Y-75454494D01*
X117367683Y-75385000D01*
X118231971Y-75385000D01*
X118300000Y-75391700D01*
X118368029Y-75385000D01*
X118368037Y-75385000D01*
X118515136Y-75370512D01*
X134759783Y-75370512D01*
X134801213Y-75650130D01*
X134896397Y-75916292D01*
X134963329Y-76041514D01*
X135207298Y-76113097D01*
X136020395Y-75300000D01*
X136379605Y-75300000D01*
X137192702Y-76113097D01*
X137436671Y-76041514D01*
X137557571Y-75786004D01*
X137626300Y-75511816D01*
X137640217Y-75229488D01*
X137598787Y-74949870D01*
X137503603Y-74683708D01*
X137436671Y-74558486D01*
X137192702Y-74486903D01*
X136379605Y-75300000D01*
X136020395Y-75300000D01*
X135207298Y-74486903D01*
X134963329Y-74558486D01*
X134842429Y-74813996D01*
X134773700Y-75088184D01*
X134759783Y-75370512D01*
X118515136Y-75370512D01*
X118571507Y-75364960D01*
X118832581Y-75285764D01*
X119073188Y-75157157D01*
X119284081Y-74984081D01*
X119327454Y-74931231D01*
X119951387Y-74307298D01*
X135386903Y-74307298D01*
X136200000Y-75120395D01*
X137013097Y-74307298D01*
X136941514Y-74063329D01*
X136686004Y-73942429D01*
X136411816Y-73873700D01*
X136129488Y-73859783D01*
X135849870Y-73901213D01*
X135583708Y-73996397D01*
X135458486Y-74063329D01*
X135386903Y-74307298D01*
X119951387Y-74307298D01*
X120823272Y-73435413D01*
X124344192Y-73435413D01*
X124439956Y-73699814D01*
X124729571Y-73840704D01*
X125041108Y-73922384D01*
X125362595Y-73941718D01*
X125681675Y-73897961D01*
X125986088Y-73792795D01*
X126160044Y-73699814D01*
X126255808Y-73435413D01*
X125300000Y-72479605D01*
X124344192Y-73435413D01*
X120823272Y-73435413D01*
X121431241Y-72827445D01*
X121484080Y-72784081D01*
X121527445Y-72731241D01*
X121527452Y-72731234D01*
X121657157Y-72573188D01*
X121769721Y-72362595D01*
X123658282Y-72362595D01*
X123702039Y-72681675D01*
X123807205Y-72986088D01*
X123900186Y-73160044D01*
X124164587Y-73255808D01*
X125120395Y-72300000D01*
X125479605Y-72300000D01*
X126435413Y-73255808D01*
X126699814Y-73160044D01*
X126840704Y-72870429D01*
X126922384Y-72558892D01*
X126941718Y-72237405D01*
X126897961Y-71918325D01*
X126792795Y-71613912D01*
X126699814Y-71439956D01*
X126435413Y-71344192D01*
X125479605Y-72300000D01*
X125120395Y-72300000D01*
X124164587Y-71344192D01*
X123900186Y-71439956D01*
X123759296Y-71729571D01*
X123677616Y-72041108D01*
X123658282Y-72362595D01*
X121769721Y-72362595D01*
X121785764Y-72332581D01*
X121864960Y-72071507D01*
X121865302Y-72068036D01*
X121885000Y-71868037D01*
X121885000Y-71868029D01*
X121891700Y-71800000D01*
X121885000Y-71731971D01*
X121885000Y-71164587D01*
X124344192Y-71164587D01*
X125300000Y-72120395D01*
X126255808Y-71164587D01*
X126160044Y-70900186D01*
X125870429Y-70759296D01*
X125558892Y-70677616D01*
X125237405Y-70658282D01*
X124918325Y-70702039D01*
X124613912Y-70807205D01*
X124439956Y-70900186D01*
X124344192Y-71164587D01*
X121885000Y-71164587D01*
X121885000Y-70173685D01*
X123373686Y-68685000D01*
X123794499Y-68685000D01*
X123848815Y-68751185D01*
X123945506Y-68830537D01*
X124055820Y-68889502D01*
X124175518Y-68925812D01*
X124300000Y-68938072D01*
X126300000Y-68938072D01*
X126424482Y-68925812D01*
X126544180Y-68889502D01*
X126654494Y-68830537D01*
X126751185Y-68751185D01*
X126805501Y-68685000D01*
X130926315Y-68685000D01*
X134942977Y-72701663D01*
X135085363Y-72914759D01*
X135285241Y-73114637D01*
X135520273Y-73271680D01*
X135781426Y-73379853D01*
X136058665Y-73435000D01*
X136341335Y-73435000D01*
X136618574Y-73379853D01*
X136879727Y-73271680D01*
X137114759Y-73114637D01*
X137236694Y-72992702D01*
X140386903Y-72992702D01*
X140458486Y-73236671D01*
X140713996Y-73357571D01*
X140988184Y-73426300D01*
X141270512Y-73440217D01*
X141550130Y-73398787D01*
X141816292Y-73303603D01*
X141941514Y-73236671D01*
X142013097Y-72992702D01*
X141200000Y-72179605D01*
X140386903Y-72992702D01*
X137236694Y-72992702D01*
X137314637Y-72914759D01*
X137471680Y-72679727D01*
X137579853Y-72418574D01*
X137635000Y-72141335D01*
X137635000Y-72070512D01*
X139759783Y-72070512D01*
X139801213Y-72350130D01*
X139896397Y-72616292D01*
X139963329Y-72741514D01*
X140207298Y-72813097D01*
X141020395Y-72000000D01*
X140207298Y-71186903D01*
X139963329Y-71258486D01*
X139842429Y-71513996D01*
X139773700Y-71788184D01*
X139759783Y-72070512D01*
X137635000Y-72070512D01*
X137635000Y-71858665D01*
X137579853Y-71581426D01*
X137471680Y-71320273D01*
X137314637Y-71085241D01*
X137114759Y-70885363D01*
X136901663Y-70742977D01*
X133458685Y-67300000D01*
X133573686Y-67185000D01*
X137701999Y-67185000D01*
X137756315Y-67251185D01*
X137853006Y-67330537D01*
X137963320Y-67389502D01*
X138083018Y-67425812D01*
X138207500Y-67438072D01*
X140112500Y-67438072D01*
X140236982Y-67425812D01*
X140356680Y-67389502D01*
X140466994Y-67330537D01*
X140563685Y-67251185D01*
X140643037Y-67154494D01*
X140687905Y-67070553D01*
X140813766Y-67173845D01*
X141089552Y-67321255D01*
X141388797Y-67412030D01*
X141700000Y-67442681D01*
X142011204Y-67412030D01*
X142310449Y-67321255D01*
X142586235Y-67173845D01*
X142827963Y-66975463D01*
X142855001Y-66942518D01*
X142855000Y-68186315D01*
X142668765Y-68372550D01*
X142615920Y-68415919D01*
X142572551Y-68468764D01*
X142572548Y-68468767D01*
X142442844Y-68626812D01*
X142314236Y-68867420D01*
X142235040Y-69128493D01*
X142208300Y-69400000D01*
X142215001Y-69468039D01*
X142215000Y-70976653D01*
X142129370Y-70891023D01*
X142013097Y-71007296D01*
X141941514Y-70763329D01*
X141686004Y-70642429D01*
X141411816Y-70573700D01*
X141129488Y-70559783D01*
X140849870Y-70601213D01*
X140583708Y-70696397D01*
X140458486Y-70763329D01*
X140386903Y-71007298D01*
X141200000Y-71820395D01*
X141214143Y-71806253D01*
X141393748Y-71985858D01*
X141379605Y-72000000D01*
X142192702Y-72813097D01*
X142380598Y-72757966D01*
X142485363Y-72914759D01*
X142685241Y-73114637D01*
X142920273Y-73271680D01*
X143181426Y-73379853D01*
X143458665Y-73435000D01*
X143741335Y-73435000D01*
X144018574Y-73379853D01*
X144279727Y-73271680D01*
X144514759Y-73114637D01*
X144636694Y-72992702D01*
X147786903Y-72992702D01*
X147858486Y-73236671D01*
X148113996Y-73357571D01*
X148388184Y-73426300D01*
X148670512Y-73440217D01*
X148950130Y-73398787D01*
X149216292Y-73303603D01*
X149341514Y-73236671D01*
X149413097Y-72992702D01*
X148600000Y-72179605D01*
X147786903Y-72992702D01*
X144636694Y-72992702D01*
X144714637Y-72914759D01*
X144871680Y-72679727D01*
X144979853Y-72418574D01*
X145035000Y-72141335D01*
X145035000Y-72070512D01*
X147159783Y-72070512D01*
X147201213Y-72350130D01*
X147296397Y-72616292D01*
X147363329Y-72741514D01*
X147607298Y-72813097D01*
X148420395Y-72000000D01*
X148779605Y-72000000D01*
X149592702Y-72813097D01*
X149836671Y-72741514D01*
X149957571Y-72486004D01*
X150026300Y-72211816D01*
X150040217Y-71929488D01*
X149998787Y-71649870D01*
X149903603Y-71383708D01*
X149836671Y-71258486D01*
X149592702Y-71186903D01*
X148779605Y-72000000D01*
X148420395Y-72000000D01*
X147607298Y-71186903D01*
X147363329Y-71258486D01*
X147242429Y-71513996D01*
X147173700Y-71788184D01*
X147159783Y-72070512D01*
X145035000Y-72070512D01*
X145035000Y-71858665D01*
X144985000Y-71607301D01*
X144985000Y-71007298D01*
X147786903Y-71007298D01*
X148600000Y-71820395D01*
X149413097Y-71007298D01*
X149341514Y-70763329D01*
X149086004Y-70642429D01*
X148811816Y-70573700D01*
X148529488Y-70559783D01*
X148249870Y-70601213D01*
X147983708Y-70696397D01*
X147858486Y-70763329D01*
X147786903Y-71007298D01*
X144985000Y-71007298D01*
X144985000Y-70235413D01*
X156044192Y-70235413D01*
X156139956Y-70499814D01*
X156429571Y-70640704D01*
X156741108Y-70722384D01*
X157062595Y-70741718D01*
X157381675Y-70697961D01*
X157686088Y-70592795D01*
X157860044Y-70499814D01*
X157955808Y-70235413D01*
X157000000Y-69279605D01*
X156044192Y-70235413D01*
X144985000Y-70235413D01*
X144985000Y-69973685D01*
X145171235Y-69787450D01*
X145224080Y-69744081D01*
X145283641Y-69671507D01*
X145349357Y-69591432D01*
X145397157Y-69533188D01*
X145525764Y-69292581D01*
X145565194Y-69162595D01*
X155358282Y-69162595D01*
X155402039Y-69481675D01*
X155507205Y-69786088D01*
X155600186Y-69960044D01*
X155864587Y-70055808D01*
X156820395Y-69100000D01*
X157179605Y-69100000D01*
X158135413Y-70055808D01*
X158399814Y-69960044D01*
X158540704Y-69670429D01*
X158622384Y-69358892D01*
X158641718Y-69037405D01*
X158597961Y-68718325D01*
X158492795Y-68413912D01*
X158399814Y-68239956D01*
X158135413Y-68144192D01*
X157179605Y-69100000D01*
X156820395Y-69100000D01*
X155864587Y-68144192D01*
X155600186Y-68239956D01*
X155459296Y-68529571D01*
X155377616Y-68841108D01*
X155358282Y-69162595D01*
X145565194Y-69162595D01*
X145604960Y-69031507D01*
X145625000Y-68828037D01*
X145625000Y-68828029D01*
X145631700Y-68760000D01*
X145625000Y-68691971D01*
X145625000Y-67964587D01*
X156044192Y-67964587D01*
X157000000Y-68920395D01*
X157955808Y-67964587D01*
X157860044Y-67700186D01*
X157570429Y-67559296D01*
X157258892Y-67477616D01*
X156937405Y-67458282D01*
X156618325Y-67502039D01*
X156313912Y-67607205D01*
X156139956Y-67700186D01*
X156044192Y-67964587D01*
X145625000Y-67964587D01*
X145625000Y-67185000D01*
X155231971Y-67185000D01*
X155300000Y-67191700D01*
X155368029Y-67185000D01*
X155368037Y-67185000D01*
X155571507Y-67164960D01*
X155832581Y-67085764D01*
X156073188Y-66957157D01*
X156284081Y-66784081D01*
X156327454Y-66731231D01*
X157320614Y-65738072D01*
X158000000Y-65738072D01*
X158124482Y-65725812D01*
X158244180Y-65689502D01*
X158354494Y-65630537D01*
X158451185Y-65551185D01*
X158505501Y-65485000D01*
X164791971Y-65485000D01*
X164860000Y-65491700D01*
X164928029Y-65485000D01*
X164928037Y-65485000D01*
X165131507Y-65464960D01*
X165392581Y-65385764D01*
X165633188Y-65257157D01*
X165844081Y-65084081D01*
X165887454Y-65031231D01*
X166223604Y-64695081D01*
X172259758Y-70731236D01*
X172303127Y-70784081D01*
X172355972Y-70827450D01*
X172355974Y-70827452D01*
X172514020Y-70957157D01*
X172754627Y-71085764D01*
X173015701Y-71164960D01*
X173219171Y-71185000D01*
X173219179Y-71185000D01*
X173287208Y-71191700D01*
X173355237Y-71185000D01*
X173772998Y-71185000D01*
X173772998Y-71328567D01*
X173488195Y-71211805D01*
X173248934Y-71284379D01*
X172926743Y-71444361D01*
X172641954Y-71664125D01*
X172405511Y-71935226D01*
X172226500Y-72247246D01*
X172111801Y-72588194D01*
X172228146Y-72873000D01*
X173773000Y-72873000D01*
X173773000Y-72853000D01*
X174027000Y-72853000D01*
X174027000Y-72873000D01*
X175571854Y-72873000D01*
X175688199Y-72588194D01*
X175573500Y-72247246D01*
X175394489Y-71935226D01*
X175158046Y-71664125D01*
X174873257Y-71444361D01*
X174551066Y-71284379D01*
X174311805Y-71211805D01*
X174027002Y-71328567D01*
X174027002Y-71185000D01*
X180522705Y-71185000D01*
X180568815Y-71241185D01*
X180665506Y-71320537D01*
X180775820Y-71379502D01*
X180895518Y-71415812D01*
X181020000Y-71428072D01*
X184980000Y-71428072D01*
X185104482Y-71415812D01*
X185224180Y-71379502D01*
X185334494Y-71320537D01*
X185431185Y-71241185D01*
X185510537Y-71144494D01*
X185569502Y-71034180D01*
X185605812Y-70914482D01*
X185618072Y-70790000D01*
X185618072Y-68810000D01*
X185605812Y-68685518D01*
X185569502Y-68565820D01*
X185510537Y-68455506D01*
X185431185Y-68358815D01*
X185334494Y-68279463D01*
X185224180Y-68220498D01*
X185104482Y-68184188D01*
X184980000Y-68171928D01*
X181020000Y-68171928D01*
X180895518Y-68184188D01*
X180775820Y-68220498D01*
X180665506Y-68279463D01*
X180568815Y-68358815D01*
X180522705Y-68415000D01*
X173860894Y-68415000D01*
X169083965Y-63638072D01*
X170300000Y-63638072D01*
X170424482Y-63625812D01*
X170544180Y-63589502D01*
X170654494Y-63530537D01*
X170709981Y-63485000D01*
X172031971Y-63485000D01*
X172100000Y-63491700D01*
X172168029Y-63485000D01*
X172168037Y-63485000D01*
X172371507Y-63464960D01*
X172632581Y-63385764D01*
X172873188Y-63257157D01*
X173084081Y-63084081D01*
X173127454Y-63031231D01*
X174023686Y-62135000D01*
X174080732Y-62135000D01*
X174435250Y-62064482D01*
X174769199Y-61926156D01*
X175069744Y-61725338D01*
X175325338Y-61469744D01*
X175526156Y-61169199D01*
X175664482Y-60835250D01*
X175735000Y-60480732D01*
X175735000Y-60119268D01*
X175664482Y-59764750D01*
X175526156Y-59430801D01*
X175389980Y-59227000D01*
X189273000Y-59227000D01*
X189273000Y-90840000D01*
X88660000Y-90840000D01*
X88660000Y-76478865D01*
X92429782Y-76478865D01*
X92460095Y-76604528D01*
X92588304Y-76897205D01*
X92771148Y-77159246D01*
X93001601Y-77380581D01*
X93270806Y-77552704D01*
X93568418Y-77669000D01*
X93883000Y-77725000D01*
X94873000Y-77725000D01*
X94873000Y-76227000D01*
X95127000Y-76227000D01*
X95127000Y-77725000D01*
X96117000Y-77725000D01*
X96431582Y-77669000D01*
X96729194Y-77552704D01*
X96998399Y-77380581D01*
X97228852Y-77159246D01*
X97411696Y-76897205D01*
X97539905Y-76604528D01*
X97570218Y-76478865D01*
X97450740Y-76227000D01*
X95127000Y-76227000D01*
X94873000Y-76227000D01*
X92549260Y-76227000D01*
X92429782Y-76478865D01*
X88660000Y-76478865D01*
X88660000Y-75721135D01*
X92429782Y-75721135D01*
X92549260Y-75973000D01*
X94873000Y-75973000D01*
X94873000Y-74475000D01*
X95127000Y-74475000D01*
X95127000Y-75973000D01*
X97450740Y-75973000D01*
X97570218Y-75721135D01*
X97539905Y-75595472D01*
X97411696Y-75302795D01*
X97228852Y-75040754D01*
X96998399Y-74819419D01*
X96729194Y-74647296D01*
X96431582Y-74531000D01*
X96117000Y-74475000D01*
X95127000Y-74475000D01*
X94873000Y-74475000D01*
X93883000Y-74475000D01*
X93568418Y-74531000D01*
X93270806Y-74647296D01*
X93001601Y-74819419D01*
X92771148Y-75040754D01*
X92588304Y-75302795D01*
X92460095Y-75595472D01*
X92429782Y-75721135D01*
X88660000Y-75721135D01*
X88660000Y-71100000D01*
X92377138Y-71100000D01*
X92408513Y-71418556D01*
X92501432Y-71724869D01*
X92652325Y-72007170D01*
X92855392Y-72254608D01*
X93102830Y-72457675D01*
X93385131Y-72608568D01*
X93691444Y-72701487D01*
X93930176Y-72725000D01*
X94041408Y-72725000D01*
X94275152Y-72849939D01*
X94630476Y-72957725D01*
X94907403Y-72985000D01*
X103655000Y-72985000D01*
X103655000Y-74092596D01*
X103682275Y-74369523D01*
X103790061Y-74724847D01*
X103965097Y-75052317D01*
X104200655Y-75339345D01*
X104487683Y-75574903D01*
X104815152Y-75749939D01*
X104815354Y-75750000D01*
X104815153Y-75750061D01*
X104487684Y-75925097D01*
X104200656Y-76160655D01*
X103965098Y-76447683D01*
X103790062Y-76775152D01*
X103682276Y-77130476D01*
X103655001Y-77407403D01*
X103655001Y-79215000D01*
X94907403Y-79215000D01*
X94630476Y-79242275D01*
X94275152Y-79350061D01*
X94047155Y-79471928D01*
X93020000Y-79471928D01*
X92895518Y-79484188D01*
X92775820Y-79520498D01*
X92665506Y-79579463D01*
X92568815Y-79658815D01*
X92489463Y-79755506D01*
X92430498Y-79865820D01*
X92394188Y-79985518D01*
X92381928Y-80110000D01*
X92381928Y-82090000D01*
X92394188Y-82214482D01*
X92430498Y-82334180D01*
X92489463Y-82444494D01*
X92568815Y-82541185D01*
X92665506Y-82620537D01*
X92775820Y-82679502D01*
X92895518Y-82715812D01*
X93020000Y-82728072D01*
X94047155Y-82728072D01*
X94275152Y-82849939D01*
X94630476Y-82957725D01*
X94907403Y-82985000D01*
X105532597Y-82985000D01*
X105809524Y-82957725D01*
X106164848Y-82849939D01*
X106374136Y-82738072D01*
X106640000Y-82738072D01*
X106764482Y-82725812D01*
X106884180Y-82689502D01*
X106994494Y-82630537D01*
X107091185Y-82551185D01*
X107170537Y-82454494D01*
X107229502Y-82344180D01*
X107265812Y-82224482D01*
X107278072Y-82100000D01*
X107278072Y-81747050D01*
X107289939Y-81724848D01*
X107397725Y-81369524D01*
X107425000Y-81092597D01*
X107425000Y-77407403D01*
X107397725Y-77130476D01*
X107289939Y-76775152D01*
X107114903Y-76447683D01*
X106879345Y-76160655D01*
X106592317Y-75925097D01*
X106264848Y-75750061D01*
X106264646Y-75750000D01*
X106264847Y-75749939D01*
X106592317Y-75574903D01*
X106879345Y-75339345D01*
X107114903Y-75052317D01*
X107289939Y-74724848D01*
X107397725Y-74369524D01*
X107425000Y-74092597D01*
X107425000Y-73804366D01*
X109408300Y-73804366D01*
X109415001Y-73872405D01*
X109415000Y-79031971D01*
X109408300Y-79100000D01*
X109415000Y-79168029D01*
X109415000Y-79168036D01*
X109425455Y-79274188D01*
X109435040Y-79371507D01*
X109487420Y-79544180D01*
X109514236Y-79632580D01*
X109642843Y-79873187D01*
X109664848Y-79900000D01*
X109759981Y-80015919D01*
X109815919Y-80084080D01*
X109868765Y-80127450D01*
X111672550Y-81931236D01*
X111715919Y-81984081D01*
X111768764Y-82027450D01*
X111768766Y-82027452D01*
X111837769Y-82084081D01*
X111926812Y-82157157D01*
X112167419Y-82285764D01*
X112428493Y-82364960D01*
X112631963Y-82385000D01*
X112631971Y-82385000D01*
X112700000Y-82391700D01*
X112768029Y-82385000D01*
X114649881Y-82385000D01*
X114878169Y-82537537D01*
X115193919Y-82668325D01*
X115529117Y-82735000D01*
X115870883Y-82735000D01*
X116206081Y-82668325D01*
X116521831Y-82537537D01*
X116750119Y-82385000D01*
X122426315Y-82385000D01*
X123705387Y-83664073D01*
X123727832Y-83776912D01*
X123851082Y-84074463D01*
X124030013Y-84342252D01*
X124257748Y-84569987D01*
X124525537Y-84748918D01*
X124823088Y-84872168D01*
X125138967Y-84935000D01*
X125461033Y-84935000D01*
X125776912Y-84872168D01*
X126074463Y-84748918D01*
X126170123Y-84685000D01*
X132126315Y-84685000D01*
X135672550Y-88231236D01*
X135715919Y-88284081D01*
X135768764Y-88327450D01*
X135768766Y-88327452D01*
X135801717Y-88354494D01*
X135926812Y-88457157D01*
X136167419Y-88585764D01*
X136428493Y-88664960D01*
X136631963Y-88685000D01*
X136631972Y-88685000D01*
X136699999Y-88691700D01*
X136768026Y-88685000D01*
X140494473Y-88685000D01*
X140562502Y-88691700D01*
X140630531Y-88685000D01*
X140630539Y-88685000D01*
X140834009Y-88664960D01*
X141095083Y-88585764D01*
X141335690Y-88457157D01*
X141546583Y-88284081D01*
X141589956Y-88231231D01*
X142654634Y-87166553D01*
X165219009Y-87166553D01*
X165261603Y-87465907D01*
X165361778Y-87751199D01*
X165441739Y-87900792D01*
X165695920Y-87984475D01*
X166580395Y-87100000D01*
X165695920Y-86215525D01*
X165441739Y-86299208D01*
X165310842Y-86571775D01*
X165235635Y-86864642D01*
X165219009Y-87166553D01*
X142654634Y-87166553D01*
X142771241Y-87049947D01*
X142824080Y-87006583D01*
X142867445Y-86953743D01*
X142867452Y-86953736D01*
X142997156Y-86795691D01*
X142997158Y-86795689D01*
X143125764Y-86555083D01*
X143166360Y-86421255D01*
X143204960Y-86294010D01*
X143216960Y-86172168D01*
X143225000Y-86090539D01*
X143225000Y-86090531D01*
X143229222Y-86047663D01*
X143252037Y-86075463D01*
X143493766Y-86273845D01*
X143769552Y-86421255D01*
X144068797Y-86512030D01*
X144380000Y-86542681D01*
X144691204Y-86512030D01*
X144990449Y-86421255D01*
X145245365Y-86285000D01*
X156231971Y-86285000D01*
X156300000Y-86291700D01*
X156368029Y-86285000D01*
X156368037Y-86285000D01*
X156571507Y-86264960D01*
X156670272Y-86235000D01*
X156761033Y-86235000D01*
X157076912Y-86172168D01*
X157374463Y-86048918D01*
X157393915Y-86035920D01*
X165875525Y-86035920D01*
X166760000Y-86920395D01*
X166774143Y-86906253D01*
X166953748Y-87085858D01*
X166939605Y-87100000D01*
X166953748Y-87114143D01*
X166774143Y-87293748D01*
X166760000Y-87279605D01*
X165875525Y-88164080D01*
X165959208Y-88418261D01*
X166231775Y-88549158D01*
X166524642Y-88624365D01*
X166826553Y-88640991D01*
X167125907Y-88598397D01*
X167411199Y-88498222D01*
X167560792Y-88418261D01*
X167644474Y-88164082D01*
X167760422Y-88280030D01*
X167807187Y-88233265D01*
X167810498Y-88244180D01*
X167869463Y-88354494D01*
X167948815Y-88451185D01*
X168045506Y-88530537D01*
X168155820Y-88589502D01*
X168275518Y-88625812D01*
X168400000Y-88638072D01*
X168879387Y-88638072D01*
X170072550Y-89831236D01*
X170115919Y-89884081D01*
X170168764Y-89927450D01*
X170168766Y-89927452D01*
X170281099Y-90019641D01*
X170326812Y-90057157D01*
X170567419Y-90185764D01*
X170828493Y-90264960D01*
X171031963Y-90285000D01*
X171031972Y-90285000D01*
X171099999Y-90291700D01*
X171168026Y-90285000D01*
X172689918Y-90285000D01*
X172730256Y-90325338D01*
X173030801Y-90526156D01*
X173364750Y-90664482D01*
X173719268Y-90735000D01*
X174080732Y-90735000D01*
X174435250Y-90664482D01*
X174769199Y-90526156D01*
X175069744Y-90325338D01*
X175325338Y-90069744D01*
X175526156Y-89769199D01*
X175664482Y-89435250D01*
X175735000Y-89080732D01*
X175735000Y-88719268D01*
X175664482Y-88364750D01*
X175526156Y-88030801D01*
X175325338Y-87730256D01*
X175069744Y-87474662D01*
X174769199Y-87273844D01*
X174435250Y-87135518D01*
X174080732Y-87065000D01*
X173719268Y-87065000D01*
X173364750Y-87135518D01*
X173030801Y-87273844D01*
X172730256Y-87474662D01*
X172689918Y-87515000D01*
X171673686Y-87515000D01*
X170838072Y-86679387D01*
X170838072Y-86200000D01*
X170825812Y-86075518D01*
X170789502Y-85955820D01*
X170730537Y-85845506D01*
X170651185Y-85748815D01*
X170554494Y-85669463D01*
X170444180Y-85610498D01*
X170324482Y-85574188D01*
X170200000Y-85561928D01*
X168400000Y-85561928D01*
X168275518Y-85574188D01*
X168155820Y-85610498D01*
X168045506Y-85669463D01*
X167948815Y-85748815D01*
X167869463Y-85845506D01*
X167810498Y-85955820D01*
X167807187Y-85966735D01*
X167760422Y-85919970D01*
X167644474Y-86035918D01*
X167560792Y-85781739D01*
X167288225Y-85650842D01*
X166995358Y-85575635D01*
X166693447Y-85559009D01*
X166394093Y-85601603D01*
X166108801Y-85701778D01*
X165959208Y-85781739D01*
X165875525Y-86035920D01*
X157393915Y-86035920D01*
X157642252Y-85869987D01*
X157869987Y-85642252D01*
X158048918Y-85374463D01*
X158172168Y-85076912D01*
X158194613Y-84964072D01*
X165573686Y-77585000D01*
X172689918Y-77585000D01*
X172730256Y-77625338D01*
X173030801Y-77826156D01*
X173364750Y-77964482D01*
X173719268Y-78035000D01*
X173776315Y-78035000D01*
X176472550Y-80731236D01*
X176515919Y-80784081D01*
X176568764Y-80827450D01*
X176568766Y-80827452D01*
X176723567Y-80954494D01*
X176726812Y-80957157D01*
X176967419Y-81085764D01*
X177228493Y-81164960D01*
X177431963Y-81185000D01*
X177431971Y-81185000D01*
X177500000Y-81191700D01*
X177568029Y-81185000D01*
X181153951Y-81185000D01*
X181385131Y-81308568D01*
X181691444Y-81401487D01*
X181930176Y-81425000D01*
X184069824Y-81425000D01*
X184308556Y-81401487D01*
X184614869Y-81308568D01*
X184897170Y-81157675D01*
X185144608Y-80954608D01*
X185347675Y-80707170D01*
X185498568Y-80424869D01*
X185591487Y-80118556D01*
X185622862Y-79800000D01*
X185591487Y-79481444D01*
X185498568Y-79175131D01*
X185347675Y-78892830D01*
X185144608Y-78645392D01*
X184897170Y-78442325D01*
X184614869Y-78291432D01*
X184308556Y-78198513D01*
X184069824Y-78175000D01*
X181930176Y-78175000D01*
X181691444Y-78198513D01*
X181385131Y-78291432D01*
X181153951Y-78415000D01*
X178073686Y-78415000D01*
X175735000Y-76076315D01*
X175735000Y-76019268D01*
X175664482Y-75664750D01*
X175526156Y-75330801D01*
X175424636Y-75178865D01*
X180429782Y-75178865D01*
X180460095Y-75304528D01*
X180588304Y-75597205D01*
X180771148Y-75859246D01*
X181001601Y-76080581D01*
X181270806Y-76252704D01*
X181568418Y-76369000D01*
X181883000Y-76425000D01*
X182873000Y-76425000D01*
X182873000Y-74927000D01*
X183127000Y-74927000D01*
X183127000Y-76425000D01*
X184117000Y-76425000D01*
X184431582Y-76369000D01*
X184729194Y-76252704D01*
X184998399Y-76080581D01*
X185228852Y-75859246D01*
X185411696Y-75597205D01*
X185539905Y-75304528D01*
X185570218Y-75178865D01*
X185450740Y-74927000D01*
X183127000Y-74927000D01*
X182873000Y-74927000D01*
X180549260Y-74927000D01*
X180429782Y-75178865D01*
X175424636Y-75178865D01*
X175325338Y-75030256D01*
X175069744Y-74774662D01*
X174797931Y-74593042D01*
X174873257Y-74555639D01*
X175047558Y-74421135D01*
X180429782Y-74421135D01*
X180549260Y-74673000D01*
X182873000Y-74673000D01*
X182873000Y-73175000D01*
X183127000Y-73175000D01*
X183127000Y-74673000D01*
X185450740Y-74673000D01*
X185570218Y-74421135D01*
X185539905Y-74295472D01*
X185411696Y-74002795D01*
X185228852Y-73740754D01*
X184998399Y-73519419D01*
X184729194Y-73347296D01*
X184431582Y-73231000D01*
X184117000Y-73175000D01*
X183127000Y-73175000D01*
X182873000Y-73175000D01*
X181883000Y-73175000D01*
X181568418Y-73231000D01*
X181270806Y-73347296D01*
X181001601Y-73519419D01*
X180771148Y-73740754D01*
X180588304Y-74002795D01*
X180460095Y-74295472D01*
X180429782Y-74421135D01*
X175047558Y-74421135D01*
X175158046Y-74335875D01*
X175394489Y-74064774D01*
X175573500Y-73752754D01*
X175688199Y-73411806D01*
X175571854Y-73127000D01*
X174027000Y-73127000D01*
X174027000Y-73147000D01*
X173773000Y-73147000D01*
X173773000Y-73127000D01*
X172228146Y-73127000D01*
X172111801Y-73411806D01*
X172226500Y-73752754D01*
X172405511Y-74064774D01*
X172641954Y-74335875D01*
X172926743Y-74555639D01*
X173002069Y-74593042D01*
X172730256Y-74774662D01*
X172689918Y-74815000D01*
X165068029Y-74815000D01*
X165000000Y-74808300D01*
X164931971Y-74815000D01*
X164931963Y-74815000D01*
X164761207Y-74831818D01*
X164728492Y-74835040D01*
X164575579Y-74881426D01*
X164467419Y-74914236D01*
X164226812Y-75042843D01*
X164149858Y-75105998D01*
X164068766Y-75172548D01*
X164068764Y-75172550D01*
X164015919Y-75215919D01*
X163972550Y-75268764D01*
X156235928Y-83005387D01*
X156123088Y-83027832D01*
X155825537Y-83151082D01*
X155557748Y-83330013D01*
X155372761Y-83515000D01*
X145765000Y-83515000D01*
X145765000Y-80600000D01*
X154961928Y-80600000D01*
X154974188Y-80724482D01*
X155010498Y-80844180D01*
X155069463Y-80954494D01*
X155148815Y-81051185D01*
X155245506Y-81130537D01*
X155355820Y-81189502D01*
X155475518Y-81225812D01*
X155600000Y-81238072D01*
X156314250Y-81235000D01*
X156473000Y-81076250D01*
X156473000Y-79727000D01*
X156727000Y-79727000D01*
X156727000Y-81076250D01*
X156885750Y-81235000D01*
X157600000Y-81238072D01*
X157724482Y-81225812D01*
X157844180Y-81189502D01*
X157954494Y-81130537D01*
X158051185Y-81051185D01*
X158130537Y-80954494D01*
X158189502Y-80844180D01*
X158225812Y-80724482D01*
X158238072Y-80600000D01*
X158235000Y-79885750D01*
X158076250Y-79727000D01*
X156727000Y-79727000D01*
X156473000Y-79727000D01*
X155123750Y-79727000D01*
X154965000Y-79885750D01*
X154961928Y-80600000D01*
X145765000Y-80600000D01*
X145765000Y-80093685D01*
X147258685Y-78600000D01*
X154961928Y-78600000D01*
X154965000Y-79314250D01*
X155123750Y-79473000D01*
X156473000Y-79473000D01*
X156473000Y-78123750D01*
X156727000Y-78123750D01*
X156727000Y-79473000D01*
X158076250Y-79473000D01*
X158235000Y-79314250D01*
X158238072Y-78600000D01*
X158225812Y-78475518D01*
X158189502Y-78355820D01*
X158130537Y-78245506D01*
X158051185Y-78148815D01*
X157954494Y-78069463D01*
X157844180Y-78010498D01*
X157724482Y-77974188D01*
X157600000Y-77961928D01*
X156885750Y-77965000D01*
X156727000Y-78123750D01*
X156473000Y-78123750D01*
X156314250Y-77965000D01*
X155600000Y-77961928D01*
X155475518Y-77974188D01*
X155355820Y-78010498D01*
X155245506Y-78069463D01*
X155148815Y-78148815D01*
X155069463Y-78245506D01*
X155010498Y-78355820D01*
X154974188Y-78475518D01*
X154961928Y-78600000D01*
X147258685Y-78600000D01*
X149301663Y-76557023D01*
X149514759Y-76414637D01*
X149714637Y-76214759D01*
X149871680Y-75979727D01*
X149979853Y-75718574D01*
X150035000Y-75441335D01*
X150035000Y-75158665D01*
X149979853Y-74881426D01*
X149871680Y-74620273D01*
X149714637Y-74385241D01*
X149514759Y-74185363D01*
X149279727Y-74028320D01*
X149018574Y-73920147D01*
X148741335Y-73865000D01*
X148458665Y-73865000D01*
X148181426Y-73920147D01*
X147920273Y-74028320D01*
X147685241Y-74185363D01*
X147485363Y-74385241D01*
X147342977Y-74598337D01*
X143448764Y-78492551D01*
X143395920Y-78535919D01*
X143352551Y-78588764D01*
X143352548Y-78588767D01*
X143225000Y-78744185D01*
X143225000Y-76685396D01*
X143388184Y-76726300D01*
X143670512Y-76740217D01*
X143950130Y-76698787D01*
X144216292Y-76603603D01*
X144341514Y-76536671D01*
X144413097Y-76292702D01*
X143600000Y-75479605D01*
X143585858Y-75493748D01*
X143406253Y-75314143D01*
X143420395Y-75300000D01*
X143779605Y-75300000D01*
X144592702Y-76113097D01*
X144836671Y-76041514D01*
X144957571Y-75786004D01*
X145026300Y-75511816D01*
X145040217Y-75229488D01*
X144998787Y-74949870D01*
X144903603Y-74683708D01*
X144836671Y-74558486D01*
X144592702Y-74486903D01*
X143779605Y-75300000D01*
X143420395Y-75300000D01*
X142607298Y-74486903D01*
X142419402Y-74542034D01*
X142314637Y-74385241D01*
X142236694Y-74307298D01*
X142786903Y-74307298D01*
X143600000Y-75120395D01*
X144413097Y-74307298D01*
X144341514Y-74063329D01*
X144086004Y-73942429D01*
X143811816Y-73873700D01*
X143529488Y-73859783D01*
X143249870Y-73901213D01*
X142983708Y-73996397D01*
X142858486Y-74063329D01*
X142786903Y-74307298D01*
X142236694Y-74307298D01*
X142114759Y-74185363D01*
X141879727Y-74028320D01*
X141618574Y-73920147D01*
X141341335Y-73865000D01*
X141058665Y-73865000D01*
X140781426Y-73920147D01*
X140520273Y-74028320D01*
X140285241Y-74185363D01*
X140085363Y-74385241D01*
X139928320Y-74620273D01*
X139820147Y-74881426D01*
X139765000Y-75158665D01*
X139765000Y-75441335D01*
X139820147Y-75718574D01*
X139928320Y-75979727D01*
X140085363Y-76214759D01*
X140285241Y-76414637D01*
X140455001Y-76528067D01*
X140455000Y-83297855D01*
X140376982Y-83274188D01*
X140252500Y-83261928D01*
X139585750Y-83265000D01*
X139427000Y-83423750D01*
X139427000Y-84773000D01*
X139447000Y-84773000D01*
X139447000Y-85027000D01*
X139427000Y-85027000D01*
X139427000Y-85047000D01*
X139173000Y-85047000D01*
X139173000Y-85027000D01*
X137871250Y-85027000D01*
X137712500Y-85185750D01*
X137709428Y-85900000D01*
X137710905Y-85915000D01*
X137273686Y-85915000D01*
X135258686Y-83900000D01*
X137709428Y-83900000D01*
X137712500Y-84614250D01*
X137871250Y-84773000D01*
X139173000Y-84773000D01*
X139173000Y-83423750D01*
X139014250Y-83265000D01*
X138347500Y-83261928D01*
X138223018Y-83274188D01*
X138103320Y-83310498D01*
X137993006Y-83369463D01*
X137896315Y-83448815D01*
X137816963Y-83545506D01*
X137757998Y-83655820D01*
X137721688Y-83775518D01*
X137709428Y-83900000D01*
X135258686Y-83900000D01*
X133727454Y-82368769D01*
X133684081Y-82315919D01*
X133473188Y-82142843D01*
X133232581Y-82014236D01*
X132971507Y-81935040D01*
X132768037Y-81915000D01*
X132768029Y-81915000D01*
X132700000Y-81908300D01*
X132631971Y-81915000D01*
X126170123Y-81915000D01*
X126074463Y-81851082D01*
X125776912Y-81727832D01*
X125664073Y-81705387D01*
X124027454Y-80068769D01*
X123984081Y-80015919D01*
X123773188Y-79842843D01*
X123532581Y-79714236D01*
X123271507Y-79635040D01*
X123068037Y-79615000D01*
X123068029Y-79615000D01*
X123000000Y-79608300D01*
X122931971Y-79615000D01*
X116750119Y-79615000D01*
X116521831Y-79462463D01*
X116206081Y-79331675D01*
X116046840Y-79300000D01*
X123661928Y-79300000D01*
X123674188Y-79424482D01*
X123710498Y-79544180D01*
X123769463Y-79654494D01*
X123848815Y-79751185D01*
X123945506Y-79830537D01*
X124055820Y-79889502D01*
X124175518Y-79925812D01*
X124300000Y-79938072D01*
X125014250Y-79935000D01*
X125173000Y-79776250D01*
X125173000Y-78427000D01*
X125427000Y-78427000D01*
X125427000Y-79776250D01*
X125585750Y-79935000D01*
X126300000Y-79938072D01*
X126424482Y-79925812D01*
X126544180Y-79889502D01*
X126654494Y-79830537D01*
X126751185Y-79751185D01*
X126830537Y-79654494D01*
X126889502Y-79544180D01*
X126925812Y-79424482D01*
X126938072Y-79300000D01*
X126935000Y-78585750D01*
X126776250Y-78427000D01*
X125427000Y-78427000D01*
X125173000Y-78427000D01*
X123823750Y-78427000D01*
X123665000Y-78585750D01*
X123661928Y-79300000D01*
X116046840Y-79300000D01*
X115870883Y-79265000D01*
X115529117Y-79265000D01*
X115193919Y-79331675D01*
X114878169Y-79462463D01*
X114649881Y-79615000D01*
X113273686Y-79615000D01*
X112185000Y-78526315D01*
X112185000Y-74378051D01*
X114650746Y-71912305D01*
X114838169Y-72037537D01*
X115153919Y-72168325D01*
X115489117Y-72235000D01*
X115830883Y-72235000D01*
X116166081Y-72168325D01*
X116481831Y-72037537D01*
X116765998Y-71847663D01*
X117007663Y-71605998D01*
X117197537Y-71321831D01*
X117328325Y-71006081D01*
X117395000Y-70670883D01*
X117395000Y-70329117D01*
X117328325Y-69993919D01*
X117197537Y-69678169D01*
X117007663Y-69394002D01*
X116765998Y-69152337D01*
X116481831Y-68962463D01*
X116166081Y-68831675D01*
X115830883Y-68765000D01*
X115489117Y-68765000D01*
X115153919Y-68831675D01*
X114838169Y-68962463D01*
X114609881Y-69115000D01*
X114172392Y-69115000D01*
X114104365Y-69108300D01*
X114036338Y-69115000D01*
X114036329Y-69115000D01*
X113832859Y-69135040D01*
X113571785Y-69214236D01*
X113331178Y-69342843D01*
X113331176Y-69342844D01*
X113331177Y-69342844D01*
X113173132Y-69472548D01*
X113173130Y-69472550D01*
X113120285Y-69515919D01*
X113076916Y-69568764D01*
X109868764Y-72776917D01*
X109815920Y-72820285D01*
X109772551Y-72873130D01*
X109772548Y-72873133D01*
X109642844Y-73031178D01*
X109514236Y-73271786D01*
X109435040Y-73532859D01*
X109408300Y-73804366D01*
X107425000Y-73804366D01*
X107425000Y-70447403D01*
X107397725Y-70170476D01*
X107289939Y-69815152D01*
X107238072Y-69718116D01*
X107238072Y-69400000D01*
X107225812Y-69275518D01*
X107189502Y-69155820D01*
X107130537Y-69045506D01*
X107051185Y-68948815D01*
X106954494Y-68869463D01*
X106844180Y-68810498D01*
X106724482Y-68774188D01*
X106600000Y-68761928D01*
X106172106Y-68761928D01*
X105909524Y-68682275D01*
X105540000Y-68645880D01*
X105170477Y-68682275D01*
X104907895Y-68761928D01*
X104400000Y-68761928D01*
X104275518Y-68774188D01*
X104155820Y-68810498D01*
X104045506Y-68869463D01*
X103948815Y-68948815D01*
X103869463Y-69045506D01*
X103810498Y-69155820D01*
X103792546Y-69215000D01*
X94907403Y-69215000D01*
X94630476Y-69242275D01*
X94275152Y-69350061D01*
X94041408Y-69475000D01*
X93930176Y-69475000D01*
X93691444Y-69498513D01*
X93385131Y-69591432D01*
X93102830Y-69742325D01*
X92855392Y-69945392D01*
X92652325Y-70192830D01*
X92501432Y-70475131D01*
X92408513Y-70781444D01*
X92377138Y-71100000D01*
X88660000Y-71100000D01*
X88660000Y-59227000D01*
X172410020Y-59227000D01*
X172273844Y-59430801D01*
M02*
